<ttFont>
<head>
    <!-- Most of this table will be recalculated by the compiler -->
    <tableVersion value="1.0"/>
    <fontRevision value="4.00299"/>
    <checkSumAdjustment value="0x426a7325"/>
    <magicNumber value="0x5f0f3cf5"/>
    <flags value="00000000 00000011"/>
    <unitsPerEm value="1000"/>
    <created value="Tue Mar  5 22:18:30 2019"/>
    <modified value="Tue Mar  5 22:18:30 2019"/>
    <xMin value="-514"/>
    <yMin value="-543"/>
    <xMax value="2649"/>
    <yMax value="1026"/>
    <macStyle value="00000000 00000000"/>
    <lowestRecPPEM value="3"/>
    <fontDirectionHint value="2"/>
    <indexToLocFormat value="0"/>
    <glyphDataFormat value="0"/>
  </head>
          <CharString index="0">
            99 callgsubr
            -125 -66 -93 -126 -133 73 -104 147 -100 callgsubr
            hvcurveto
            return
          </CharString>
          <CharString index="1">
            351 vlineto
            -104 callgsubr
            return
          </CharString>
          <CharString index="2">
            -138 -85 -78 -109 -19 -21 2 4 -17 vhcurveto
            -16 vlineto
            -3 13 23 -3 21 hhcurveto
            119 92 85 147 140 -98 85 -116 return
          </CharString>
          <CharString index="3">
            -95 -78 -11 hvcurveto
            -107 callsubr
            return
          </CharString>
          <CharString index="4">
            -153 -91 99 167 4 0 7 1 8 hvcurveto
            3 hlineto
            128 -95 callsubr
            return
          </CharString>
          <CharString index="5">
            -106 callgsubr
            endchar
          </CharString>
          <CharString index="6">
            17 vlineto
            -1 -11 -10 -1 -10 hhcurveto
            -138 -67 96 124 115 58 88 116 return
          </CharString>
          <CharString index="7">
            96 69 65 98 95 68 -66 -93 -94 -68 -66 -95 return
          </CharString>
          <CharString index="8">
            -122 -47 -104 callsubr
            return
          </CharString>
          <CharString index="9">
            251 -356 -85 callgsubr
            return
          </CharString>
          <CharString index="10">
            -61 -24 -64 -87 -83 -27 65 57 vhcurveto
            31 -17 -30 vlineto
            -69 36 -70 91 94 34 67 74 vhcurveto
            return
          </CharString>
          <CharString index="11">
            rmoveto
            153 69 -119 -103 -48 -17 -56 -37 -44 hvcurveto
            -323 312 rlineto
            50 callsubr
            return
          </CharString>
          <CharString index="12">
            96 41 -97 callgsubr
            return
          </CharString>
          <CharString index="13">
            131 96 71 130 126 -76 73 -114 -114 -74 -77 -119 -18 2 -17 3 -18 546 callsubr
            18 -2 17 18 vvcurveto
            111 69 69 102 104 69 -68 -115 -119 -88 -66 -122 vhcurveto
            return
          </CharString>
          <CharString index="14">
            20 vstem
            324 -7 rmoveto
            150 113 103 174 174 -113 103 -150 -150 -114 -103 -174 -174 114 -103 150 hvcurveto
            18 vmoveto
            -124 -120 541 callgsubr
            120 80 124 124 119 -80 -179 -179 -119 -80 -124 hvcurveto
            return
          </CharString>
          <CharString index="15">
            rmoveto
            -100 callsubr
            4 callsubr
            vhcurveto
            return
          </CharString>
          <CharString index="16">
            152 -105 callgsubr
            return
          </CharString>
          <CharString index="17">
            rmoveto
            -86 callgsubr
            return
          </CharString>
          <CharString index="18">
            96 414 callsubr
            -155 -108 -105 -172 hvcurveto
            507 hmoveto
            -156 -103 -103 -141 -148 -95 98 161 161 95 98 148 141 103 -103 -156 vhcurveto
            return
          </CharString>
          <CharString index="19">
            -97 callsubr
            310 return
          </CharString>
          <CharString index="20">
            -16 332 -79 callgsubr
            return
          </CharString>
          <CharString index="21">
            -130 -110 -84 -125 vhcurveto
            return
          </CharString>
          <CharString index="22">
            107 56 -96 -145 hvcurveto
            -78 callgsubr
            return
          </CharString>
          <CharString index="23">
            -30 callgsubr
            255 374 -289 vlineto
            -102 -66 -86 -118 vhcurveto
            363 175 callgsubr
            return
          </CharString>
          <CharString index="24">
            106 74 73 103 82 -50 59 -60 19 return
          </CharString>
          <CharString index="25">
            247 -90 callsubr
            return
          </CharString>
          <CharString index="26">
            98 callsubr
            -205 hlineto
            -14 callsubr
            return
          </CharString>
          <CharString index="27">
            314 vlineto
            154 -78 77 -125 -122 -73 -80 -103 -15 vhcurveto
            19 hlineto
            103 15 74 63 102 hhcurveto
            119 61 -71 -149 4 hvcurveto
            -210 hlineto
            -129 -70 -66 -97 hvcurveto
            return
          </CharString>
          <CharString index="28">
            -16 542 -281 vlineto
            -76 callgsubr
            return
          </CharString>
          <CharString index="29">
            -91 61 -63 93 92 58 62 127 return
          </CharString>
          <CharString index="30">
            -94 71 -61 105 112 89 67 99 32 vhcurveto
            -232 -149 rmoveto
            -94 -65 55 83 87 64 58 117 hvcurveto
            210 -37 hlineto
            -146 -99 -100 -133 vhcurveto
            endchar
          </CharString>
          <CharString index="31">
            11 -17 -11 vlineto
            -109 -62 -72 -100 -117 -55 82 115 vhcurveto
            145 136 vlineto
            return
          </CharString>
          <CharString index="32">
            -17 hlineto
            -141 -98 -100 -139 -136 -102 533 callgsubr
            68 167 hlineto
            return
          </CharString>
          <CharString index="33">
            24 16 -24 hlineto
            -155 -88 85 150 return
          </CharString>
          <CharString index="34">
            407 callsubr
            73 78 87 29 vhcurveto
            return
          </CharString>
          <CharString index="35">
            -169 -89 -78 -123 -119 -79 73 144 vhcurveto
            315 -19 -313 vlineto
            -167 99 -70 118 101 86 51 106 25 vhcurveto
            return
          </CharString>
          <CharString index="36">
            29 callsubr
            -169 136 callsubr
            return
          </CharString>
          <CharString index="37">
            89 79 109 93 -63 67 -94 -78 -66 -52 -86 -7 1 -10 1 -6 hvcurveto
            345 callgsubr
            76 60 47 67 82 58 -61 -83 -99 -84 -73 -118 -151 -114 104 152 179 122 83 159 vhcurveto
            76 167 hlineto
            return
          </CharString>
          <CharString index="38">
            -57 callgsubr
            464 callsubr
            return
          </CharString>
          <CharString index="39">
            -53 callgsubr
            16 return
          </CharString>
          <CharString index="40">
            16 -55 callgsubr
            return
          </CharString>
          <CharString index="41">
            -159 96 -92 164 vhcurveto
            -52 callgsubr
            return
          </CharString>
          <CharString index="42">
            -187 -134 rlineto
            -20 vlineto
            187 130 rlineto
            return
          </CharString>
          <CharString index="43">
            75 -25 -64 66 -114 hhcurveto
            return
          </CharString>
          <CharString index="44">
            rmoveto
            114 75 73 113 114 75 -73 -114 188 callsubr
            -113 -75 74 112 vhcurveto
            return
          </CharString>
          <CharString index="45">
            -40 callgsubr
            161 106 73 163 hvcurveto
            return
          </CharString>
          <CharString index="46">
            -64 callgsubr
            65 -89 131 return
          </CharString>
          <CharString index="47">
            191 callsubr
            -82 -59 -59 -98 132 callsubr
            89 52 51 72 88 38 -68 -108 vhcurveto
            -111 -122 vlineto
            return
          </CharString>
          <CharString index="48">
            -144 -80 -25 -69 vhcurveto
            -44 -180 hlineto
            -132 88 -82 132 return
          </CharString>
          <CharString index="49">
            8 callsubr
            -122 -103 -61 callgsubr
            -36 -50 -24 -69 hhcurveto
            return
          </CharString>
          <CharString index="50">
            -63 callgsubr
            -18 hlineto
            -1 -10 -1 -14 -11 return
          </CharString>
          <CharString index="51">
            77 -10 -47 96 -114 hhcurveto
            return
          </CharString>
          <CharString index="52">
            -28 callsubr
            endchar
          </CharString>
          <CharString index="53">
            -12 callgsubr
            -12 callsubr
            return
          </CharString>
          <CharString index="54">
            29 26 4 8 23 hvcurveto
            -46 callsubr
            return
          </CharString>
          <CharString index="55">
            343 callsubr
            -109 79 -84 155 133 65 71 88 412 callsubr
            return
          </CharString>
          <CharString index="56">
            -13 callgsubr
            17 8 vlineto
            return
          </CharString>
          <CharString index="57">
            -29 callgsubr
            17 724 return
          </CharString>
          <CharString index="58">
            vstem
            60 351 rmoveto
            -210 137 -148 191 169 104 85 129 48 vhcurveto
            -20 hlineto
            -112 -41 -100 -84 -160 hhcurveto
            -170 -137 129 211 213 137 129 170 160 100 -84 -113 41 hvcurveto
            20 hlineto
            130 -48 -104 85 -169 hhcurveto
            -191 -137 -148 -212 hvcurveto
            return
          </CharString>
          <CharString index="59">
            115 callgsubr
            -40 callsubr
            return
          </CharString>
          <CharString index="60">
            -90 -56 68 96 hvcurveto
            326 292 -326 vlineto
            -96 -54 -68 -92 vhcurveto
            return
          </CharString>
          <CharString index="61">
            -211 -185 rlineto
            23 hlineto
            247 218 32 26 22 34 12 36 rlinecurve
            -84 callgsubr
            return
          </CharString>
          <CharString index="62">
            429 686 rmoveto
            18 -344 -704 344 18 -324 325 294 18 -294 325 vlineto
            return
          </CharString>
          <CharString index="63">
            -127 59 -87 120 return
          </CharString>
          <CharString index="64">
            rmoveto
            392 callsubr
            117 60 -72 -57 14 hvcurveto
            17 hlineto
            65 -16 -62 80 -130 hhcurveto
            -23 -21 -3 -4 -20 hvcurveto
            return
          </CharString>
          <CharString index="65">
            rmoveto
            -16 hlineto
            -58 -47 -71 -108 -109 -46 71 58 vhcurveto
            -16 hlineto
            -64 51 -81 120 119 52 81 64 vhcurveto
            return
          </CharString>
          <CharString index="66">
            vstem
            60 270 rmoveto
            221 callsubr
            -20 hlineto
            -107 -17 -91 -65 -120 hhcurveto
            -124 -116 541 callgsubr
            116 80 124 120 91 -65 -107 17 hvcurveto
            20 hlineto
            111 -18 -90 79 -140 hhcurveto
            -150 -110 -103 -174 hvcurveto
            return
          </CharString>
          <CharString index="67">
            -382 -572 -105 callgsubr
            return
          </CharString>
          <CharString index="68">
            -56 callgsubr
            59 93 113 return
          </CharString>
          <CharString index="69">
            -147 96 -85 123 112 66 66 75 25 vhcurveto
            32 callsubr
          </CharString>
          <CharString index="70">
            138 callgsubr
            135 452 -163 vlineto
            -72 -3 -80 -42 -119 vvcurveto
            -32 6 -36 14 -39 vhcurveto
            202 callsubr
            return
          </CharString>
          <CharString index="71">
            -50 callsubr
            vlineto
            return
          </CharString>
          <CharString index="72">
            -162 67 callsubr
            17 return
          </CharString>
          <CharString index="73">
            rlineto
            -62 -28 227 callgsubr
            50 20 22 4 8 21 vhcurveto
            77 callsubr
            return
          </CharString>
          <CharString index="74">
            311 34 10 60 17 423 16 164 16 hstemhm
            85 -15 callsubr
            hintmask 1111101110000000
            590 104 rmoveto
            -60 callgsubr
            -965 -16 654 -164 vlineto
            hintmask 1111110110000000
            -115 -5 -44 -92 -11 -76 rrcurveto
            -107 callsubr
            hintmask 1111101110000000
            19 callsubr
            -196 -239 rmoveto
            5 callsubr
            -185 179 rlineto
            -23 hlineto
            -185 -179 rlineto
            return
          </CharString>
          <CharString index="75">
            211 17 251 return
          </CharString>
          <CharString index="76">
            -16 8 -17 5 -20 2 rrcurveto
            1 vlineto
            93 16 43 64 79 vvcurveto
            106 -82 67 -106 -110 -87 -63 -109 vhcurveto
            17 hlineto
            98 -1 82 58 99 hhcurveto
            93 78 -58 -103 hvcurveto
            return
          </CharString>
          <CharString index="77">
            rmoveto
            -102 -83 69 122 115 86 68 99 129 51 -101 -86 hvcurveto
            -1 vlineto
            -81 -51 -105 -129 vhcurveto
            return
          </CharString>
          <CharString index="78">
            835 231 callsubr
            119 37 167 callsubr
            366 17 -15 15 286 callsubr
            hintmask 1111101101100000
            307 247 -20 callgsubr
            hintmask 1111011011100000
            598 477 rmoveto
            -281 vlineto
            -64 callsubr
            -111 -93 -73 -121 -13 hvcurveto
            -368 334 rlineto
            804 -724 rmoveto
            -106 callsubr
            -113 -62 -67 -77 -24 hvcurveto
            284 533 16 -1489 -26 callgsubr
            92 62 46 50 25 vhcurveto
            -127 13 90 -73 114 hhcurveto
            return
          </CharString>
          <CharString index="79">
            17 724 vlineto
            return
          </CharString>
          <CharString index="80">
            -148 102 -86 131 122 71 69 77 26 return
          </CharString>
          <CharString index="81">
            139 callsubr
            102 44 -11 -223 119 hvcurveto
            106 -114 -48 4 316 callgsubr
            return
          </CharString>
          <CharString index="82">
            rmoveto
            25 -18 17 -25 -25 -18 -17 -25 -25 18 -17 25 25 18 17 25 vhcurveto
            return
          </CharString>
          <CharString index="83">
            17 vstem
            297 -82 callsubr
            return
          </CharString>
          <CharString index="84">
            -106 60 -75 99 104 63 75 106 vhcurveto
            return
          </CharString>
          <CharString index="85">
            724 rmoveto
            16 return
          </CharString>
          <CharString index="86">
            416 callsubr
            -710 -16 677 113 callsubr
            -51 -5 -50 -33 -19 -56 rrcurveto
            112 -25 -105 63 -134 hhcurveto
            -64 77 callgsubr
            hvcurveto
            return
          </CharString>
          <CharString index="87">
            hhcurveto
            -24 callgsubr
            return
          </CharString>
          <CharString index="88">
            78 -26 -69 69 -124 hhcurveto
            return
          </CharString>
          <CharString index="89">
            -279 11 callgsubr
            return
          </CharString>
          <CharString index="90">
            16 hstemhm
            85 210 callsubr
            return
          </CharString>
          <CharString index="91">
            60 270 rmoveto
            -172 108 -105 155 129 87 76 96 28 vhcurveto
            return
          </CharString>
          <CharString index="92">
            79 callsubr
            157 17 return
          </CharString>
          <CharString index="93">
            -44 callsubr
            vhcurveto
            return
          </CharString>
          <CharString index="94">
            rmoveto
            485 callsubr
            129 87 76 95 28 hvcurveto
            -184 vlineto
            -139 -97 -87 -123 -125 -77 65 93 -29 vhcurveto
            -20 hlineto
            -104 31 86 -72 134 hhcurveto
            125 114 88 156 hvcurveto
            return
          </CharString>
          <CharString index="95">
            -271 17 -53 callgsubr
            return
          </CharString>
          <CharString index="96">
            rmoveto
            -33 callgsubr
            return
          </CharString>
          <CharString index="97">
            -147 -9 callsubr
            return
          </CharString>
          <CharString index="98">
            48 callgsubr
            16 351 vlineto
            return
          </CharString>
          <CharString index="99">
            119 144 return
          </CharString>
          <CharString index="100">
            8 callsubr
            -120 -105 -61 callgsubr
            -36 -50 -24 -69 hhcurveto
            return
          </CharString>
          <CharString index="101">
            4 0 7 1 8 return
          </CharString>
          <CharString index="102">
            135 48 -92 -78 -103 -71 -71 560 callgsubr
            -82 73 107 hvcurveto
            -17 hlineto
            -117 91 -79 119 120 78 76 114 vhcurveto
            return
          </CharString>
          <CharString index="103">
            342 callsubr
            39 4 vlineto
            128 -95 callsubr
            414 233 callgsubr
            return
          </CharString>
          <CharString index="104">
            -10 callsubr
            98 return
          </CharString>
          <CharString index="105">
            -94 callgsubr
            vhcurveto
            return
          </CharString>
          <CharString index="106">
            24 -25 18 360 18 322 18 hstemhm
            55 20 0 20 418 20 0 20 hintmask 11101010
            228 362 rmoveto
            hintmask 11110010
            -107 -18 -66 -67 -100 vvcurveto
            -124 91 -78 158 158 91 78 124 100 -66 67 -107 18 vhcurveto
            hintmask 11101100
            110 23 43 68 79 vvcurveto
            107 -85 72 -144 -144 -85 -72 -107 vhcurveto
            hintmask 11101010
            -79 43 -68 110 -23 vhcurveto
            hintmask 11101100
            285 170 rmoveto
            -103 -81 -58 -128 -128 -81 58 103 106 85 55 124 124 85 -55 -106 vhcurveto
            hintmask 11110010
            -209 -179 rmoveto
            122 107 -48 -128 -120 -92 -64 -137 -137 -92 64 120 128 107 48 122 hvcurveto
            endchar
          </CharString>
          <CharString index="107">
            17 3 callgsubr
            return
          </CharString>
          <CharString index="108">
            3 -119 17 413 16 222 79 callgsubr
            322 17 hintmask 11111010
            516 26 496 callgsubr
            97 110 108 71 98 126 85 55 -43 -43 26 hvcurveto
            -143 -136 rlineto
            23 hlineto
            140 133 rlineto
            52 -27 -60 53 -99 hhcurveto
            -20 -19 -2 -5 -18 hvcurveto
            hintmask 11110110
            -64 15 279 callgsubr
            -79 62 -37 45 -12 hvcurveto
            hintmask 11111010
            -85 -33 -46 -85 -89 vvcurveto
            -116 70 -108 149 265 callgsubr
            vhcurveto
            return
          </CharString>
          <CharString index="109">
            -3 callsubr
            45 119 144 return
          </CharString>
          <CharString index="110">
            889 148 callsubr
            17 16 55 16 248 323 callgsubr
            148 249 callgsubr
            hintmask 1011011111111000
            444 callsubr
            hintmask 1011101111111000
            -100 callsubr
            vhcurveto
            hintmask 1011011111111000
            4 callsubr
            hvcurveto
            692 -87 -90 callsubr
            724 175 callgsubr
            -1543 -16 622 -213 -326 vlineto
            -98 callgsubr
            258 -27 hlineto
            467 callgsubr
            return
          </CharString>
          <CharString index="111">
            -100 -67 65 93 return
          </CharString>
          <CharString index="112">
            173 169 174 -169 rlineto
            23 hlineto
            return
          </CharString>
          <CharString index="113">
            188 rmoveto
            -76 callsubr
            return
          </CharString>
          <CharString index="114">
            152 167 callgsubr
            return
          </CharString>
          <CharString index="115">
            -96 callsubr
            525 callsubr
            return
          </CharString>
          <CharString index="116">
            16 hstemhm
            85 17 return
          </CharString>
          <CharString index="117">
            -261 -242 rlineto
            23 hlineto
            294 274 24 20 18 27 11 30 rlinecurve
            return
          </CharString>
          <CharString index="118">
            -113 vlineto
            65 callsubr
            return
          </CharString>
          <CharString index="119">
            199 callsubr
            232 -429 -28 callsubr
            endchar
          </CharString>
          <CharString index="120">
            3 -97 17 486 callgsubr
            322 17 hintmask 11111010
            516 48 -43 callsubr
            hintmask 11110110
            -62 14 279 callgsubr
            472 callsubr
            hvcurveto
            hintmask 11111010
            64 callgsubr
            return
          </CharString>
          <CharString index="121">
            -16 542 -281 vlineto
            -64 callsubr
            -120 -99 -85 -140 hvcurveto
            return
          </CharString>
          <CharString index="122">
            -114 -62 -69 -77 -23 hvcurveto
            286 return
          </CharString>
          <CharString index="123">
            17 330 17 return
          </CharString>
          <CharString index="124">
            491 callsubr
            vlineto
            -83 -96 -27 -106 -91 73 -40 92 hvcurveto
            492 callgsubr
            return
          </CharString>
          <CharString index="125">
            96 62 17 -15 15 464 16 165 9 callsubr
            286 callgsubr
            hintmask 01111110
            102 311 -36 callgsubr
            412 -418 rmoveto
            23 hlineto
            -176 171 rlineto
            135 9 99 100 138 vvcurveto
            142 -105 102 -142 4 vhcurveto
            363 callgsubr
            -138 99 -101 136 -8 vhcurveto
            -176 -171 rlineto
            23 hlineto
            hintmask 10111110
            173 169 rlineto
            return
          </CharString>
          <CharString index="126">
            -85 callsubr
            162 callsubr
            return
          </CharString>
          <CharString index="127">
            rmoveto
            134 100 79 119 155 61 -117 -100 -93 -61 -121 -155 337 callgsubr
            vhcurveto
            return
          </CharString>
          <CharString index="128">
            742 0 16 -14 16 141 563 callsubr
            113 16 46 16 159 9 callsubr
            415 188 callgsubr
            hintmask 1011111111110000
            1199 63 callgsubr
            -1396 -16 745 -181 vlineto
            -144 -80 -25 -69 vhcurveto
            -31 hlineto
            59 -13 -62 70 -124 hhcurveto
            -149 -97 -77 -173 hvcurveto
            hintmask 0111111111110000
            41 callgsubr
            90 73 139 135 51 -84 -53 hvcurveto
            -136 vlineto
            hintmask 1011111111110000
            -132 88 -82 132 return
          </CharString>
          <CharString index="129">
            523 724 rmoveto
            337 -245 hlineto
            67 -31 -57 38 -70 hhcurveto
            -104 -54 -64 -74 -21 hvcurveto
            -219 -303 -107 callgsubr
            763 104 rmoveto
            -84 callsubr
            -1465 118 callsubr
            return
          </CharString>
          <CharString index="130">
            30 -7 18 439 18 226 18 hstemhm
            70 20 -20 26 438 20 hintmask 11110100
            505 522 rmoveto
            20 hlineto
            113 -14 -67 77 -124 hhcurveto
            -186 -64 -148 -225 -178 39 -168 218 167 60 116 115 150 -83 94 -149 -117 -98 -65 -106 -17 hvcurveto
            291 -13 91 106 152 hhcurveto
            110 61 -66 -106 14 hvcurveto
            hintmask 11101100
            -183 -72 rmoveto
            129 83 -77 -149 -134 -84 -79 -123 -167 -64 121 113 141 121 64 105 hvcurveto
            endchar
          </CharString>
          <CharString index="131">
            -155 116 16 292 16 -8 8 293 532 callgsubr
            15 hintmask 11010111
            565 334 rmoveto
            -15 hlineto
            -119 -97 -83 -141 -103 298 callgsubr
            vhcurveto
            319 callgsubr
            hintmask 11011011
            -91 callgsubr
            -96 -60 -68 -87 vhcurveto
            hintmask 10111011
            56 callsubr
            hintmask 10110111
            69 callgsubr
            118 return
          </CharString>
          <CharString index="132">
            794 -22 callsubr
            -829 19 callgsubr
            22 38 12 39 rlinecurve
            -3 17 17 -2 18 141 callsubr
            return
          </CharString>
          <CharString index="133">
            248 callsubr
            147 93 -63 75 -104 hvcurveto
            return
          </CharString>
          <CharString index="134">
            -16 562 66 callsubr
            hintmask 1111110110000000
            -216 -72 -102 callsubr
          </CharString>
          <CharString index="135">
            223 callgsubr
            106 81 -78 -111 vhcurveto
            -174 vlineto
            return
          </CharString>
          <CharString index="136">
            64 callsubr
            -17 return
          </CharString>
          <CharString index="137">
            137 21 -21 403 callgsubr
            17 hintmask 11101011
            329 132 rmoveto
            hintmask 11101101
            208 callgsubr
            hintmask 11101011
            138 callgsubr
            102 441 -360 vlineto
            -137 -111 -95 -137 vhcurveto
            427 592 rmoveto
            16 -791 -16 154 -102 vlineto
            hintmask 11011011
            16 callgsubr
            hintmask 11011101
            171 callsubr
            return
          </CharString>
          <CharString index="138">
            -91 76 -40 92 vhcurveto
            45 hlineto
            121 67 -56 -92 -70 -47 -64 -114 hvcurveto
            return
          </CharString>
          <CharString index="139">
            -84 callgsubr
            endchar
          </CharString>
          <CharString index="140">
            16 hstemhm
            100 0 callsubr
            return
          </CharString>
          <CharString index="141">
            423 hmoveto
            123 79 86 122 116 86 -82 -127 -120 -87 -82 -116 -120 -80 85 117 vhcurveto
            return
          </CharString>
          <CharString index="142">
            -79 -73 29 86 99 96 18 77 349 callsubr
            return
          </CharString>
          <CharString index="143">
            -498 734 rmoveto
            15 vlineto
            116 59 104 256 256 54 -104 -116 vhcurveto
            -9 -162 -16 162 412 callgsubr
            -162 return
          </CharString>
          <CharString index="144">
            -153 -160 115 callsubr
            return
          </CharString>
          <CharString index="145">
            782 63 callgsubr
            -979 19 callgsubr
            21 37 13 39 rlinecurve
            -3 16 16 -2 17 74 callgsubr
            return
          </CharString>
          <CharString index="146">
            rmoveto
            -19 callgsubr
            return
          </CharString>
          <CharString index="147">
            158 203 callgsubr
            hstemhm
            10 135 -20 20 517 20 hintmask 11101100
            310 704 rmoveto
            -185 -343 hlineto
            hintmask 11110100
            -115 -18 hlineto
            hintmask 11101100
            115 -343 95 callsubr
            325 233 18 -233 325 356 callsubr
          </CharString>
          <CharString index="148">
            -106 61 -75 101 104 60 75 106 vhcurveto
            325 return
          </CharString>
          <CharString index="149">
            300 callsubr
            29 28 5 9 24 hvcurveto
            -211 -186 rlineto
            23 hlineto
            hintmask 11111010
            252 222 1 1 1 1 1 1 rlinecurve
            1 1 18 16 13 20 8 21 rlinecurve
            -81 callgsubr
            hintmask 11111110
            182 callgsubr
          </CharString>
          <CharString index="150">
            96 63 16 464 16 165 507 callgsubr
            286 callgsubr
            vstem
            102 311 -36 callgsubr
            238 -248 rmoveto
            146 109 103 145 142 -105 102 -142 4 hvcurveto
            363 callgsubr
            -145 109 -103 146 vhcurveto
            return
          </CharString>
          <CharString index="151">
            -588 -25 callgsubr
            return
          </CharString>
          <CharString index="152">
            16 80 callsubr
            return
          </CharString>
          <CharString index="153">
            99 104 63 75 106 vhcurveto
            107 callgsubr
            return
          </CharString>
          <CharString index="154">
            -97 -54 -113 -43 -125 vvcurveto
            -89 62 -69 101 100 44 66 29 6 vhcurveto
            -171 vlineto
            return
          </CharString>
          <CharString index="155">
            vlineto
            41 callsubr
            return
          </CharString>
          <CharString index="156">
            -115 -5 -44 -92 -11 -76 rrcurveto
            return
          </CharString>
          <CharString index="157">
            38 40 55 20 60 hhcurveto
            return
          </CharString>
          <CharString index="158">
            37 vlineto
            67 22 -28 -33 -39 -22 -28 -67 hvcurveto
            -60 -19 63 hlineto
            70 36 36 50 54 -43 30 -83 -5 hvcurveto
            return
          </CharString>
          <CharString index="159">
            129 callsubr
            112 66 66 75 25 vhcurveto
            return
          </CharString>
          <CharString index="160">
            -6 callsubr
            hvcurveto
            3 hlineto
            128 96 return
          </CharString>
          <CharString index="161">
            -127 734 rmoveto
            52 vlineto
            86 32 77 96 96 30 -77 -86 vhcurveto
            -46 -162 -16 162 412 callgsubr
            -162 return
          </CharString>
          <CharString index="162">
            -49 -29 -27 -53 -65 vvcurveto
            475 callgsubr
            vhcurveto
            17 hlineto
            -3 17 -2 17 16 vvcurveto
            return
          </CharString>
          <CharString index="163">
            -99 65 -51 68 -12 vhcurveto
            -2 vlineto
            return
          </CharString>
          <CharString index="164">
            0 16 282 126 callsubr
            232 97 callgsubr
            return
          </CharString>
          <CharString index="165">
            141 -103 callgsubr
            return
          </CharString>
          <CharString index="166">
            80 callgsubr
            405 16 return
          </CharString>
          <CharString index="167">
            rmoveto
            -24 vlineto
            187 -130 rlineto
            20 vlineto
            return
          </CharString>
          <CharString index="168">
            97 21 -21 291 callgsubr
            318 58 callsubr
            398 599 rmoveto
            -751 -16 572 127 callsubr
            -127 -106 -87 -142 -148 102 -86 131 return
          </CharString>
          <CharString index="169">
            16 164 -17 callsubr
            return
          </CharString>
          <CharString index="170">
            -106 60 -75 46 callsubr
            return
          </CharString>
          <CharString index="171">
            -28 callgsubr
            170 return
          </CharString>
          <CharString index="172">
            -124 -77 -77 -120 vhcurveto
            return
          </CharString>
          <CharString index="173">
            -281 vlineto
            -95 callgsubr
            -53 callsubr
            return
          </CharString>
          <CharString index="174">
            -16 162 -724 return
          </CharString>
          <CharString index="175">
            16 -7 62 callgsubr
            return
          </CharString>
          <CharString index="176">
            16 callsubr
            177 17 return
          </CharString>
          <CharString index="177">
            147 callsubr
            156 callgsubr
            return
          </CharString>
          <CharString index="178">
            99 callsubr
            -179 return
          </CharString>
          <CharString index="179">
            103 callsubr
            vhcurveto
            -101 callsubr
            -13 callgsubr
            vlineto
            return
          </CharString>
          <CharString index="180">
            -63 callsubr
            endchar
          </CharString>
          <CharString index="181">
            -105 callgsubr
            382 293 rmoveto
            -232 return
          </CharString>
          <CharString index="182">
            108 54 -61 -76 4 hvcurveto
            20 hlineto
            98 -6 -72 57 -108 hhcurveto
            -98 -71 -63 -72 hvcurveto
            return
          </CharString>
          <CharString index="183">
            hhcurveto
            96 callsubr
            return
          </CharString>
          <CharString index="184">
            20 vlineto
            -8 -21 -22 -5 -20 hhcurveto
            -39 -30 17 39 return
          </CharString>
          <CharString index="185">
            307 128 callgsubr
            return
          </CharString>
          <CharString index="186">
            210 callsubr
            163 17 return
          </CharString>
          <CharString index="187">
            hstemhm
            75 16 callsubr
            return
          </CharString>
          <CharString index="188">
            -17 0 18 675 18 hstem
            66 20 387 20 vstem
            50 11 rmoveto
            -11 467 18 -429 vlineto
            167 99 238 208 190 vvcurveto
            146 -100 50 -100 -134 -82 -88 -143 -11 vhcurveto
            20 hlineto
            119 9 62 94 136 hhcurveto
            139 41 -87 -91 -164 -177 -181 -246 -159 hvcurveto
            endchar
          </CharString>
          <CharString index="189">
            11 -100 16 103 -21 237 10 327 16 136 16 hstemhm
            90 17 9 17 306 17 11 16 hintmask 1111110010000000
            630 -22 callsubr
            -665 -16 vlineto
            hintmask 1111110110000000
            474 563 callgsubr
            hlineto
            -141 -94 -57 -126 -89 68 -66 83 -15 hvcurveto
            hintmask 1111111010000000
            -63 -13 -62 -55 -88 vvcurveto
            -112 80 -67 102 return
          </CharString>
          <CharString index="190">
            178 callgsubr
            vhcurveto
            6 5 0 6 hhcurveto
            -175 -169 rlineto
            23 hlineto
            5 callsubr
            return
          </CharString>
          <CharString index="191">
            -68 callsubr
            -179 -397 vlineto
            -128 -109 -85 -126 return
          </CharString>
          <CharString index="192">
            473 callsubr
            201 callsubr
            vhcurveto
            return
          </CharString>
          <CharString index="193">
            -175 -140 129 212 return
          </CharString>
          <CharString index="194">
            rmoveto
            16 -609 -16 442 -133 275 callsubr
            -185 hlineto
            -14 callsubr
            hintmask 11111100
            -72 callgsubr
            hvcurveto
            -101 callgsubr
            170 93 vlineto
            hintmask 11111000
            130 84 66 151 hvcurveto
            133 vlineto
            endchar
          </CharString>
          <CharString index="195">
            276 callgsubr
            207 callsubr
            return
          </CharString>
          <CharString index="196">
            297 247 213 callsubr
            return
          </CharString>
          <CharString index="197">
            58 callgsubr
            -285 17 724 vlineto
            return
          </CharString>
          <CharString index="198">
            rmoveto
            -79 -58 51 77 79 61 50 87 hvcurveto
            122 -85 398 callsubr
            return
          </CharString>
          <CharString index="199">
            -127 62 -87 127 vhcurveto
            return
          </CharString>
          <CharString index="200">
            -255 vlineto
            467 callgsubr
            25 22 4 7 20 vhcurveto
            -260 -242 rlineto
            23 hlineto
            296 276 22 20 17 26 10 30 rlinecurve
            234 callgsubr
            return
          </CharString>
          <CharString index="201">
            20 hlineto
            35 6 20 35 38 59 40 -70 66 hhcurveto
            53 23 36 52 7 hvcurveto
            -20 hlineto
            -35 -4 -18 -34 -41 -54 -43 69 -67 hhcurveto
            -50 -25 -36 -52 -10 hvcurveto
            return
          </CharString>
          <CharString index="202">
            185 hlineto
            245 127 130 222 222 -127 130 -245 hvcurveto
            -686 vmoveto
            -165 return
          </CharString>
          <CharString index="203">
            122 71 69 77 26 hvcurveto
            -12 callsubr
            return
          </CharString>
          <CharString index="204">
            -5 callgsubr
            160 callgsubr
            return
          </CharString>
          <CharString index="205">
            65 callsubr
            -110 return
          </CharString>
          <CharString index="206">
            17 -68 callsubr
            return
          </CharString>
          <CharString index="207">
            112 callsubr
            endchar
          </CharString>
          <CharString index="208">
            84 220 -139 vlineto
            -350 -350 rlineto
            24 hlineto
            326 327 rlineto
            -267 71 callsubr
            -295 -220 112 vlineto
            return
          </CharString>
          <CharString index="209">
            185 callsubr
            -496 17 724 hlineto
            endchar
          </CharString>
          <CharString index="210">
            -133 73 -104 147 11 11 1 1 11 return
          </CharString>
          <CharString index="211">
            140 90 79 111 18 return
          </CharString>
          <CharString index="212">
            rmoveto
            -138 -88 -20 88 -378 vlineto
            -105 39 -37 92 vhcurveto
            59 20 -57 hlineto
            -82 -31 25 97 hvcurveto
            378 170 20 -170 138 vlineto
            endchar
          </CharString>
          <CharString index="213">
            71 -106 hhcurveto
            -19 callgsubr
            return
          </CharString>
          <CharString index="214">
            hhcurveto
            99 59 59 67 22 hvcurveto
            -285 vlineto
            return
          </CharString>
          <CharString index="215">
            30 21 -21 534 18 -12 -20 hstemhm
            85 20 410 19 hintmask 11011000
            515 317 rmoveto
            71 callgsubr
            hintmask 10111000
            143 -20 -540 20 287 vlineto
            hintmask 11011000
            147 callgsubr
            return
          </CharString>
          <CharString index="216">
            827 235 callgsubr
            -122 -115 362 callsubr
            vhcurveto
            return
          </CharString>
          <CharString index="217">
            -11 23 -5 25 25 vvcurveto
            153 callgsubr
            -41 -63 -71 -10 1 -10 1 -10 hvcurveto
            207 -111 -48 9 -102 -26 callsubr
            return
          </CharString>
          <CharString index="218">
            -16 948 -113 vlineto
            131 callgsubr
            return
          </CharString>
          <CharString index="219">
            85 callgsubr
            hlineto
            return
          </CharString>
          <CharString index="220">
            hlineto
            -42 -27 -24 -48 -55 vvcurveto
            56 callsubr
            return
          </CharString>
          <CharString index="221">
            69 124 264 callgsubr
            return
          </CharString>
          <CharString index="222">
            hlineto
            92 callsubr
            return
          </CharString>
          <CharString index="223">
            -128 403 callgsubr
            15 hintmask 11010110
            592 -22 callsubr
            -627 -16 154 -102 vlineto
            hintmask 10110110
            16 callgsubr
            hintmask 10111010
            171 callsubr
            return
          </CharString>
          <CharString index="224">
            -26 callsubr
            105 46 -6 -112 123 hvcurveto
            return
          </CharString>
          <CharString index="225">
            -16 542 -281 vlineto
            -99 callgsubr
            return
          </CharString>
          <CharString index="226">
            350 -20 rmoveto
            334 335 rlineto
            22 vlineto
            -356 -357 rlineto
            356 744 rmoveto
            16 -719 -16 vlineto
            719 -231 rmoveto
            16 -279 95 callgsubr
            vlineto
            return
          </CharString>
          <CharString index="227">
            23 348 callsubr
            427 461 callgsubr
            352 17 28 17 hintmask 11111010
            return
          </CharString>
          <CharString index="228">
            -410 144 callsubr
            return
          </CharString>
          <CharString index="229">
            238 callsubr
            -1633 14 callsubr
            return
          </CharString>
          <CharString index="230">
            146 callsubr
            -131 vhcurveto
            return
          </CharString>
          <CharString index="231">
            8 0 9 1 9 hvcurveto
            111 78 23 88 108 -102 16 -89 hvcurveto
            return
          </CharString>
          <CharString index="232">
            -39 callsubr
            107 return
          </CharString>
          <CharString index="233">
            16 -14.5 14.5 return
          </CharString>
          <CharString index="234">
            -283 hlineto
            -19 callsubr
            return
          </CharString>
          <CharString index="235">
            85 704 rmoveto
            -704 20 704 vlineto
            return
          </CharString>
          <CharString index="236">
            96 -85 123 return
          </CharString>
          <CharString index="237">
            57 -92 -90 callgsubr
            return
          </CharString>
          <CharString index="238">
            99 75 45 79 81 73 -52 -91 -81 -50 -46 -62 -38 vhcurveto
            return
          </CharString>
          <CharString index="239">
            266 callsubr
            vhcurveto
            17 hlineto
            -3 16 -1 14 14 vvcurveto
            return
          </CharString>
          <CharString index="240">
            87 161 callgsubr
            return
          </CharString>
          <CharString index="241">
            520 callgsubr
            hintmask 1011011111010000
            329 callsubr
            hintmask 1010111111010000
            18 callgsubr
            return
          </CharString>
          <CharString index="242">
            18 -140 -106 callgsubr
            return
          </CharString>
          <CharString index="243">
            32 callgsubr
            153 return
          </CharString>
          <CharString index="244">
            0 callsubr
            209 17 return
          </CharString>
          <CharString index="245">
            rmoveto
            16 14 14 16 return
          </CharString>
          <CharString index="246">
            hhcurveto
            -32 -16 32 hlineto
            return
          </CharString>
          <CharString index="247">
            -64 callsubr
            -70 -63 -29 -52 -40 hvcurveto
            -153 hlineto
            -62 callsubr
            142 hlineto
            -22 -35 -13 -43 -50 vvcurveto
            return
          </CharString>
          <CharString index="248">
            hhcurveto
            122 84 77 125 125 -82 78 -124 169 callsubr
            -33 callgsubr
            vlineto
            return
          </CharString>
          <CharString index="249">
            -16 328 -161 vlineto
            -73 callsubr
            return
          </CharString>
          <CharString index="250">
            17 vstem
            179 callsubr
            return
          </CharString>
          <CharString index="251">
            -689 -106 callgsubr
            return
          </CharString>
          <CharString index="252">
            69 callsubr
            hintmask 1111011111100000
            563 334 183 callsubr
            -1301 -16 1122 vlineto
            hintmask 1100111111100000
            350 callgsubr
            return
          </CharString>
          <CharString index="253">
            2 callsubr
            106 81 -78 return
          </CharString>
          <CharString index="254">
            409 callsubr
            72 77 87 30 vhcurveto
            return
          </CharString>
          <CharString index="255">
            21 488 callsubr
            return
          </CharString>
          <CharString index="256">
            -8 callgsubr
            395 callsubr
            hvcurveto
            -21 vlineto
            506 callsubr
            -75 callgsubr
          </CharString>
          <CharString index="257">
            rmoveto
            -161 -95 -98 -148 -141 -103 103 156 156 103 103 141 148 95 -98 -161 vhcurveto
            endchar
          </CharString>
          <CharString index="258">
            17 270 17 return
          </CharString>
          <CharString index="259">
            83 43 43 64 54 42 -38 -59 -3 vhcurveto
            16 hlineto
            69 3 -48 44 -64 hhcurveto
            -82 return
          </CharString>
          <CharString index="260">
            291 16 232 158 callsubr
            351 callsubr
            return
          </CharString>
          <CharString index="261">
            60 callgsubr
            287 -496 17 return
          </CharString>
          <CharString index="262">
            -2 hlineto
            77 -19 -64 82 -127 hhcurveto
            -125 -94 -89 -136 return
          </CharString>
          <CharString index="263">
            -93 -53 63 79 124 122 39 100 58 return
          </CharString>
          <CharString index="264">
            -151 -59 vlineto
            -167 -131 -86 -193 return
          </CharString>
          <CharString index="265">
            16 162 16 hstemhm
            88 17 0 17 return
          </CharString>
          <CharString index="266">
            17 21 247 callgsubr
            return
          </CharString>
          <CharString index="267">
            523 callgsubr
            -17 179 return
          </CharString>
          <CharString index="268">
            14 -16 -17 -13 -14 -16 return
          </CharString>
          <CharString index="269">
            -1 11 11 -1 11 hhcurveto
            return
          </CharString>
          <CharString index="270">
            374 callsubr
            -696 -16 377 -279 -122 hlineto
            -45 callgsubr
            279 422 callsubr
            return
          </CharString>
          <CharString index="271">
            rmoveto
            -127 -67 75 120 124 callsubr
            -360 165 748 -369 hlineto
            -143 -62 -109 -131 vhcurveto
            210 -103 190 callgsubr
            return
          </CharString>
          <CharString index="272">
            473 13 rmoveto
            -151 -94 84 143 hvcurveto
            2 vlineto
            6 0 7 -1 6 vhcurveto
            3 0 2 -1 2 vhcurveto
            7 hlineto
            128 96 41 155 hvcurveto
            119 -98 callsubr
            return
          </CharString>
          <CharString index="273">
            vvcurveto
            -141 126 -77 184 208 159 119 204 138 -79 63 -82 4 vhcurveto
            163 vlineto
            return
          </CharString>
          <CharString index="274">
            -16 241 callsubr
            return
          </CharString>
          <CharString index="275">
            316 callsubr
            3 hlineto
            126 123 -69 -147 -107 91 -57 return
          </CharString>
          <CharString index="276">
            -2 callgsubr
            hvcurveto
            163 callgsubr
            return
          </CharString>
          <CharString index="277">
            59 -25 56 -46 33 vhcurveto
            250 -1 rlineto
            -385 return
          </CharString>
          <CharString index="278">
            -83 -7 -73 -56 -96 vvcurveto
            -121 94 -62 137 return
          </CharString>
          <CharString index="279">
            30 -10 18 13 544 callsubr
            return
          </CharString>
          <CharString index="280">
            17 -15 17 332 17 -5 17 return
          </CharString>
          <CharString index="281">
            17 3 490 callsubr
            return
          </CharString>
          <CharString index="282">
            357 -17 -78 hlineto
            -54 -25 -40 -78 vhcurveto
            -209 298 494 16 -1064 -16 553 -261 hlineto
            79 -29 -71 54 -103 hhcurveto
            -133 -102 -93 -151 hvcurveto
            17 hlineto
            142 94 86 126 vhcurveto
            return
          </CharString>
          <CharString index="283">
            141 78 87 144 hvcurveto
            -17 hlineto
            -136 -73 -79 -129 -147 -66 96 147 vhcurveto
            446 vlineto
            return
          </CharString>
          <CharString index="284">
            5 14 15 3 17 hhcurveto
            88 38 -68 -108 hvcurveto
            -111 return
          </CharString>
          <CharString index="285">
            -16 366 -165 vlineto
            -141 -4 -105 -102 -142 vvcurveto
            return
          </CharString>
          <CharString index="286">
            78 callsubr
            255 return
          </CharString>
          <CharString index="287">
            17 189 callsubr
            return
          </CharString>
          <CharString index="288">
            hhcurveto
            196 callsubr
          </CharString>
          <CharString index="289">
            434 callsubr
            266 -135 -47 11 -111 -26 callsubr
            106 46 -6 -115 125 hvcurveto
            return
          </CharString>
          <CharString index="290">
            -92 callsubr
            703 390 rmoveto
            16 return
          </CharString>
          <CharString index="291">
            160 16 319 78 callgsubr
            return
          </CharString>
          <CharString index="292">
            -2 callsubr
            287 return
          </CharString>
          <CharString index="293">
            247 65 callgsubr
            return
          </CharString>
          <CharString index="294">
            540 callgsubr
            -84 -98 -27 -106 return
          </CharString>
          <CharString index="295">
            -112 -75 -74 -114 return
          </CharString>
          <CharString index="296">
            322 435 callsubr
            return
          </CharString>
          <CharString index="297">
            93 hlineto
            120 122 return
          </CharString>
          <CharString index="298">
            119 -46 73 -97 return
          </CharString>
          <CharString index="299">
            -149 -94 -35 -132 4 vhcurveto
            73 -29 -62 33 -62 hhcurveto
            556 callsubr
            hvcurveto
            202 callsubr
            245 callsubr
            return
          </CharString>
          <CharString index="300">
            -246 21 -21 530 22 -12 -20 hstemhm
            85 20 hintmask 11010000
            105 321 184 callgsubr
            hintmask 10110000
            131 -20 -540 20 vlineto
            return
          </CharString>
          <CharString index="301">
            -104 19 72 -74 124 hhcurveto
            -100 callgsubr
            -51 callsubr
            return
          </CharString>
          <CharString index="302">
            rmoveto
            -127 -67 80 129 124 callsubr
            -257 151 645 -369 hlineto
            -143 -62 -109 -131 vhcurveto
            endchar
          </CharString>
          <CharString index="303">
            96 callsubr
            vlineto
            endchar
          </CharString>
          <CharString index="304">
            115 16 394 563 callsubr
            hstem
            147 17 return
          </CharString>
          <CharString index="305">
            -666 vlineto
            -437 666 rlineto
            -20 -703 20 hlineto
            return
          </CharString>
          <CharString index="306">
            -78 callsubr
            vhcurveto
            104 return
          </CharString>
          <CharString index="307">
            203 callsubr
            -96 -57 -68 -92 return
          </CharString>
          <CharString index="308">
            -107 -94 114 callsubr
            return
          </CharString>
          <CharString index="309">
            17 hlineto
            -13 39 -7 36 32 vvcurveto
            return
          </CharString>
          <CharString index="310">
            -215 -274 -170 vlineto
            return
          </CharString>
          <CharString index="311">
            18 325 443 callsubr
            return
          </CharString>
          <CharString index="312">
            -118 -62 49 78 -8 hvcurveto
            -20 hlineto
            -101 12 81 -44 114 hhcurveto
            return
          </CharString>
          <CharString index="313">
            -63 callgsubr
            -12 hlineto
            33 -15 -42 45 -119 hhcurveto
            return
          </CharString>
          <CharString index="314">
            326 callsubr
            -134 return
          </CharString>
          <CharString index="315">
            200 callsubr
            -88 -55 68 96 vhcurveto
            return
          </CharString>
          <CharString index="316">
            -151 -46 97 58 -8 hvcurveto
            -20 hlineto
            -89 10 74 -84 141 hhcurveto
            return
          </CharString>
          <CharString index="317">
            17 337 8 -8 17 return
          </CharString>
          <CharString index="318">
            -493 -28 callsubr
            return
          </CharString>
          <CharString index="319">
            191 callgsubr
            28 16 248 16 -8 8 55 16 -15 15 213 16 -7 16 hstemhm
            return
          </CharString>
          <CharString index="320">
            306 callsubr
            346 -331 rlineto
            337 callsubr
            return
          </CharString>
          <CharString index="321">
            55 151 callsubr
            return
          </CharString>
          <CharString index="322">
            rmoveto
            281 callgsubr
            -73 -54 -55 -74 vhcurveto
            127 111 rmoveto
            284 callgsubr
            64 44 47 63 hvcurveto
            return
          </CharString>
          <CharString index="323">
            1535 -22 callsubr
            -1570 -16 1391 200 callsubr
            -90 -54 68 103 vhcurveto
            15 vlineto
            111 -57 88 -113 vhcurveto
            return
          </CharString>
          <CharString index="324">
            90 callsubr
            endchar
          </CharString>
          <CharString index="325">
            -6 callsubr
            vhcurveto
            3 hlineto
            128 96 38 143 hvcurveto
            89 473 callgsubr
            return
          </CharString>
          <CharString index="326">
            125 16 431 397 callsubr
            435 17 return
          </CharString>
          <CharString index="327">
            vlineto
            -351 -352 rlineto
            22 hlineto
            329 330 rlineto
            -310 return
          </CharString>
          <CharString index="328">
            -174 110 -103 150 104 callsubr
            vhcurveto
            return
          </CharString>
          <CharString index="329">
            vlineto
            53 callgsubr
            return
          </CharString>
          <CharString index="330">
            297 186 callsubr
            return
          </CharString>
          <CharString index="331">
            11 callsubr
            -110 return
          </CharString>
          <CharString index="332">
            17 -5 17 306 561 callsubr
            return
          </CharString>
          <CharString index="333">
            -105 203 callgsubr
            return
          </CharString>
          <CharString index="334">
            423 327 callgsubr
            return
          </CharString>
          <CharString index="335">
            18 10 -21 529 18 return
          </CharString>
          <CharString index="336">
            -114 22 92 -65 114 76 callsubr
            16 -631 -16 452 -283 vlineto
            -19 callsubr
            return
          </CharString>
          <CharString index="337">
            297 callsubr
            347 348 rlineto
            -348 -55 callsubr
          </CharString>
          <CharString index="338">
            148 callsubr
            88 16 321 16 return
          </CharString>
          <CharString index="339">
            313 callgsubr
            17 return
          </CharString>
          <CharString index="340">
            94 414 callsubr
            244 -277 rmoveto
            -156 -103 -103 -141 -148 -95 98 161 161 95 98 148 141 103 -103 -156 vhcurveto
            return
          </CharString>
          <CharString index="341">
            20 vstem
            108 578 rmoveto
            -38 -88 -21 88 -519 20 519 155 21 -155 38 vlineto
            97 36 45 119 vhcurveto
            20 vlineto
            -131 -44 -57 -105 hvcurveto
            return
          </CharString>
          <CharString index="342">
            -23 callsubr
            153 245 -153 vlineto
            231 callgsubr
          </CharString>
          <CharString index="343">
            16 144 37 167 callsubr
            360 17 -11 11 286 callgsubr
            return
          </CharString>
          <CharString index="344">
            16 hstem
            127 17 return
          </CharString>
          <CharString index="345">
            118 callgsubr
            179 hmoveto
            16 return
          </CharString>
          <CharString index="346">
            846 -22 callsubr
            -881 372 callsubr
            return
          </CharString>
          <CharString index="347">
            63 97 113 85 54 133 hvcurveto
            131 152 hlineto
            return
          </CharString>
          <CharString index="348">
            16 hstemhm
            100 17 return
          </CharString>
          <CharString index="349">
            84 callsubr
            -164 -88 480 callsubr
            hvcurveto
            return
          </CharString>
          <CharString index="350">
            rmoveto
            258 callgsubr
            return
          </CharString>
          <CharString index="351">
            -39 callsubr
            111 54 return
          </CharString>
          <CharString index="352">
            86 callgsubr
            vhcurveto
            return
          </CharString>
          <CharString index="353">
            111 -87 131 118 73 68 77 28 return
          </CharString>
          <CharString index="354">
            542 callgsubr
            85 17 return
          </CharString>
          <CharString index="355">
            190 callsubr
            39 return
          </CharString>
          <CharString index="356">
            hintmask 1010111111111000
            -44 callsubr
            -72 callgsubr
            vhcurveto
            258 callgsubr
            return
          </CharString>
          <CharString index="357">
            rmoveto
            16 -652 -16 471 17 callsubr
            return
          </CharString>
          <CharString index="358">
            143 -85 62 -85 -74 -86 -41 -123 331 callgsubr
            return
          </CharString>
          <CharString index="359">
            -16 hlineto
            -130 -110 -84 -125 -153 -91 99 167 -6 callsubr
            vhcurveto
            3 hlineto
            128 96 41 155 hvcurveto
            89 vlineto
            endchar
          </CharString>
          <CharString index="360">
            167 135 78 79 71 23 vhcurveto
            -264 vlineto
            endchar
          </CharString>
          <CharString index="361">
            89 16 264 16 -7 7 5 16 90 132 callgsubr
            296 15 -55 callgsubr
            return
          </CharString>
          <CharString index="362">
            220 callgsubr
            -205 hlineto
            return
          </CharString>
          <CharString index="363">
            -109 175 109 175 rlineto
            -27 hlineto
            -107 -175 107 -175 rlineto
            return
          </CharString>
          <CharString index="364">
            125 callsubr
            54 return
          </CharString>
          <CharString index="365">
            16 callsubr
            153 -67 callsubr
            return
          </CharString>
          <CharString index="366">
            -190 309 rlineto
            119 13 66 70 114 vvcurveto
            return
          </CharString>
          <CharString index="367">
            539 callsubr
            147 49 158 17 return
          </CharString>
          <CharString index="368">
            hstemhm
            232 callsubr
            return
          </CharString>
          <CharString index="369">
            -67 -54 27 68 73 57 24 57 hvcurveto
            return
          </CharString>
          <CharString index="370">
            hlineto
            -63 callgsubr
            return
          </CharString>
          <CharString index="371">
            92 58 62 127 hvcurveto
            return
          </CharString>
          <CharString index="372">
            474 callgsubr
            19 return
          </CharString>
          <CharString index="373">
            -14 2 -15 2 -15 return
          </CharString>
          <CharString index="374">
            rmoveto
            -158 346 158 hlineto
            151 54 -65 -109 -104 -54 -68 -151 hvcurveto
            225 172 rmoveto
            117 -65 77 -160 vhcurveto
            return
          </CharString>
          <CharString index="375">
            -65 -6 -63 -54 -90 vvcurveto
            -113 84 -58 108 111 88 69 117 23 vhcurveto
            -9 25 28 -4 31 hhcurveto
            90 75 48 63 23 hvcurveto
            return
          </CharString>
          <CharString index="376">
            -281 vlineto
            -99 callgsubr
            -268 vlineto
            return
          </CharString>
          <CharString index="377">
            -82 -13 -69 -64 -102 vvcurveto
            -116 84 -68 107 99 58 53 61 23 vhcurveto
            -181 16 465 vlineto
            54 36 27 58 71 vvcurveto
            -17 hlineto
            return
          </CharString>
          <CharString index="378">
            16 vlineto
            -8 -20 -38 -8 -36 hhcurveto
            433 callgsubr
            16 -37 hlineto
            433 callgsubr
            return
          </CharString>
          <CharString index="379">
            575 -42 callsubr
            endchar
          </CharString>
          <CharString index="380">
            -44 -74 325 callsubr
            64 return
          </CharString>
          <CharString index="381">
            rmoveto
            28 hlineto
            106 175 -106 175 rlineto
            -28 hlineto
            110 -175 rlineto
            return
          </CharString>
          <CharString index="382">
            vlineto
            -139 -77 -62 505 callgsubr
            return
          </CharString>
          <CharString index="383">
            hhcurveto
            139 callgsubr
            hvcurveto
            return
          </CharString>
          <CharString index="384">
            -394 21 544 callsubr
            return
          </CharString>
          <CharString index="385">
            rmoveto
            337 callgsubr
            134 100 79 119 143 70 -98 -91 hvcurveto
            -2 vlineto
            -26 vlineto
            -93 -58 -121 -155 vhcurveto
            return
          </CharString>
          <CharString index="386">
            -18 callsubr
            232 -429 -28 callsubr
            endchar
          </CharString>
          <CharString index="387">
            148 59 93 113 111 54 -92 -111 return
          </CharString>
          <CharString index="388">
            464 callsubr
            55 119 144 return
          </CharString>
          <CharString index="389">
            724 254 412 callgsubr
            return
          </CharString>
          <CharString index="390">
            16 hstemhm
            100 225 callsubr
            return
          </CharString>
          <CharString index="391">
            140 -98 85 -116 -113 -62 -67 -77 -24 return
          </CharString>
          <CharString index="392">
            -81 -27 -68 -71 -105 hhcurveto
            return
          </CharString>
          <CharString index="393">
            405 16 396 17 return
          </CharString>
          <CharString index="394">
            61 hlineto
            53 40 -27 -50 -45 -32 -29 -58 -47 -38 17 62 -7 hvcurveto
            -20 hlineto
            -66 8 39 -31 65 hhcurveto
            75 35 47 45 hvcurveto
            return
          </CharString>
          <CharString index="395">
            rmoveto
            -115 -91 -68 -121 hvcurveto
            20 hlineto
            103 72 68 114 110 80 -69 -110 -174 -129 -25 -118 vhcurveto
            return
          </CharString>
          <CharString index="396">
            rmoveto
            115 91 68 121 hvcurveto
            -20 hlineto
            -103 -72 -68 -114 -110 -80 69 110 174 129 25 118 vhcurveto
            return
          </CharString>
          <CharString index="397">
            -130 9 123 -71 177 hhcurveto
            208 159 119 204 138 -79 63 -82 4 hvcurveto
            163 vlineto
            endchar
          </CharString>
          <CharString index="398">
            144 63 callgsubr
            -341 67 callsubr
            vlineto
            return
          </CharString>
          <CharString index="399">
            21 436 callsubr
            return
          </CharString>
          <CharString index="400">
            324 577 -96 callsubr
            return
          </CharString>
          <CharString index="401">
            -114 21 -21 686 18 hstem
            225 20 vstem
            20 704 rmoveto
            -18 205 -686 20 686 205 18 vlineto
            return
          </CharString>
          <CharString index="402">
            -117 rmoveto
            -98 -76 60 108 107 73 65 134 60 49 11 21 38 hvcurveto
            -200 vlineto
            -75 -53 -97 -127 vhcurveto
            return
          </CharString>
          <CharString index="403">
            -16 1039 -281 vlineto
            -64 callsubr
            -66 -60 -26 -47 -41 hvcurveto
            -373 hlineto
            -5 callgsubr
            hvcurveto
            return
          </CharString>
          <CharString index="404">
            -367 -368 rlineto
            -2 20 vlineto
            return
          </CharString>
          <CharString index="405">
            -12 callsubr
            vlineto
            return
          </CharString>
          <CharString index="406">
            -429 99 callsubr
            return
          </CharString>
          <CharString index="407">
            rmoveto
            16 -677 -16 vlineto
            hintmask 11111110
            489 84 callgsubr
            return
          </CharString>
          <CharString index="408">
            rmoveto
            -91 -71 55 98 89 61 56 82 5 hvcurveto
            92 6 64 38 25 56 rrcurveto
            -247 vlineto
            -65 -48 -91 -114 vhcurveto
            return
          </CharString>
          <CharString index="409">
            138 16 285 434 callgsubr
            81 16 211 17 return
          </CharString>
          <CharString index="410">
            -57 callsubr
            vvcurveto
            return
          </CharString>
          <CharString index="411">
            16 -12 461 callgsubr
            405 16 376 17 return
          </CharString>
          <CharString index="412">
            241 callsubr
            166 49 -39 17 73 17 return
          </CharString>
          <CharString index="413">
            65 callgsubr
            233 vlineto
            return
          </CharString>
          <CharString index="414">
            16 hstemhm
            86 17 -8 17 351 17 -3 17 return
          </CharString>
          <CharString index="415">
            16 561 -15 vlineto
            -113 -104 -43 -76 vhcurveto
            return
          </CharString>
          <CharString index="416">
            -255 vlineto
            -21 1 -20 3 -19 vhcurveto
            return
          </CharString>
          <CharString index="417">
            219 0 36 467 37 0 -20 return
          </CharString>
          <CharString index="418">
            264 398 callgsubr
            return
          </CharString>
          <CharString index="419">
            16 186 16 151 16 return
          </CharString>
          <CharString index="420">
            17 286 callsubr
            return
          </CharString>
          <CharString index="421">
            -9 16 14 488 callsubr
            return
          </CharString>
          <CharString index="422">
            208 -8 444 callgsubr
            return
          </CharString>
          <CharString index="423">
            82 -50 59 -60 19 vhcurveto
            return
          </CharString>
          <CharString index="424">
            -176 18 61 38 return
          </CharString>
          <CharString index="425">
            16 -179 -376 vlineto
            56 callgsubr
            return
          </CharString>
          <CharString index="426">
            rmoveto
            hintmask 1111011111000000
            -100 callsubr
            vhcurveto
            hintmask 1110111111000000
            4 callsubr
            hvcurveto
            return
          </CharString>
          <CharString index="427">
            354 callgsubr
            88 -111 return
          </CharString>
          <CharString index="428">
            111 84 58 134 134 84 -58 560 callgsubr
            -84 -59 -134 -134 -84 59 110 vhcurveto
            return
          </CharString>
          <CharString index="429">
            121 -110 161 130 89 79 109 93 -63 67 -94 -78 -66 -52 -86 -7 1 -10 1 -6 return
          </CharString>
          <CharString index="430">
            118 98 79 59 79 31 vhcurveto
            519 callgsubr
            return
          </CharString>
          <CharString index="431">
            231 callsubr
            140 16 hstem
            return
          </CharString>
          <CharString index="432">
            -7 1 -10 1 -6 vhcurveto
            345 callgsubr
            return
          </CharString>
          <CharString index="433">
            29 16 -357 547 callsubr
            return
          </CharString>
          <CharString index="434">
            96 445 callgsubr
            return
          </CharString>
          <CharString index="435">
            21 489 callgsubr
            return
          </CharString>
          <CharString index="436">
            -315 -377 vlineto
            return
          </CharString>
          <CharString index="437">
            15 -345 500 callsubr
            113 212 16 -670 -16 442 -113 vlineto
            return
          </CharString>
          <CharString index="438">
            16 -68 callsubr
            -179 -468 hlineto
            -296 140 20 15 rlineto
            69 53 49 49 77 vvcurveto
            return
          </CharString>
          <CharString index="439">
            41 callgsubr
            106 73 163 hvcurveto
            return
          </CharString>
          <CharString index="440">
            rmoveto
            17 vlineto
            -2 -14 -13 -1 -12 hhcurveto
            -73 -51 47 70 75 56 53 98 113 90 -86 -147 hvcurveto
            return
          </CharString>
          <CharString index="441">
            rmoveto
            -6 callgsubr
            return
          </CharString>
          <CharString index="442">
            -325 48 callsubr
            250 -724 -55 callsubr
          </CharString>
          <CharString index="443">
            16 261 callsubr
            return
          </CharString>
          <CharString index="444">
            -51 -4 -58 -73 -104 hhcurveto
            return
          </CharString>
          <CharString index="445">
            -92 164 vhcurveto
            273 callgsubr
            166 return
          </CharString>
          <CharString index="446">
            355 callgsubr
            hvcurveto
            return
          </CharString>
          <CharString index="447">
            vvcurveto
            46 callgsubr
          </CharString>
          <CharString index="448">
            702 579 rmoveto
            -104 -54 -63 -72 -21 hvcurveto
            280 return
          </CharString>
          <CharString index="449">
            347 callgsubr
            hvcurveto
            return
          </CharString>
          <CharString index="450">
            267 callgsubr
            hvcurveto
            -17 hlineto
            return
          </CharString>
          <CharString index="451">
            vlineto
            -14 callsubr
            return
          </CharString>
          <CharString index="452">
            -16 479 417 callgsubr
            return
          </CharString>
          <CharString index="453">
            vlineto
            285 callgsubr
            return
          </CharString>
          <CharString index="454">
            16 -7 7 257 16 hstemhm
            return
          </CharString>
          <CharString index="455">
            21 477 callsubr
            return
          </CharString>
          <CharString index="456">
            hvcurveto
            169 178 return
          </CharString>
          <CharString index="457">
            -21 -3 -6 -19 hvcurveto
            return
          </CharString>
          <CharString index="458">
            314 17 50 17 return
          </CharString>
          <CharString index="459">
            573 rmoveto
            -136 -112 -58 -127 -31 hvcurveto
            -370 336 rlineto
            700 -151 hlineto
            return
          </CharString>
          <CharString index="460">
            20 65 -50 93 hhcurveto
            85 callgsubr
            return
          </CharString>
          <CharString index="461">
            244 callsubr
            -92 -111 return
          </CharString>
          <CharString index="462">
            163 vhcurveto
            176 hlineto
            -63 -27 -39 -58 -76 vvcurveto
            160 callgsubr
            vhcurveto
            return
          </CharString>
          <CharString index="463">
            144 callgsubr
            endchar
          </CharString>
          <CharString index="464" raw="1">
            f7b3fc84 9cf96806 0e 
          </CharString>
          <CharString index="465">
            686 -22 callsubr
            -721 -16 155 -446 vlineto
            -155 70 -104 160 vhcurveto
            return
          </CharString>
          <CharString index="466">
            446 132 400 callsubr
            411 16 148 9 callsubr
            403 20 return
          </CharString>
          <CharString index="467">
            -408 71 callsubr
            -316 -253 538 callgsubr
            return
          </CharString>
          <CharString index="468">
            368 -157 rmoveto
            17 vlineto
            -173 -89 119 136 119 67 118 187 return
          </CharString>
          <CharString index="469">
            77 173 -3 hvcurveto
            484 hlineto
            3 18 1 10 26 vvcurveto
            113 -83 119 -165 return
          </CharString>
          <CharString index="470">
            137 97 77 120 115 77 -68 -89 26 vhcurveto
            297 callsubr
            return
          </CharString>
          <CharString index="471">
            64 callgsubr
            endchar
          </CharString>
          <CharString index="472">
            2 16 213 16 240 16 221 16 hstem
            return
          </CharString>
          <CharString index="473">
            106 -72 132 -166 -132 -107 -91 -149 return
          </CharString>
          <CharString index="474">
            174 callsubr
            175 377 callgsubr
            return
          </CharString>
          <CharString index="475">
            467 callgsubr
            139 callgsubr
            vhcurveto
            return
          </CharString>
          <CharString index="476">
            241 callsubr
            290 17 17 17 return
          </CharString>
          <CharString index="477">
            144 63 callgsubr
            vlineto
            return
          </CharString>
          <CharString index="478">
            -85 61 -59 93 89 61 65 124 return
          </CharString>
          <CharString index="479">
            -16 149 -135 vlineto
            return
          </CharString>
          <CharString index="480">
            45 474 callsubr
            return
          </CharString>
          <CharString index="481">
            -19 -17 561 callgsubr
            return
          </CharString>
          <CharString index="482">
            29 18 29 52 24 return
          </CharString>
          <CharString index="483">
            rmoveto
            -49 50 49 vlineto
            return
          </CharString>
          <CharString index="484">
            141 50 -100 -79 hvcurveto
            17 hlineto
            87 -54 108 -154 -23 -21 -3 -4 -20 vhcurveto
            return
          </CharString>
          <CharString index="485">
            -145 451 callsubr
            vstem
            562 return
          </CharString>
          <CharString index="486">
            -164 vlineto
            39 callgsubr
            return
          </CharString>
          <CharString index="487">
            rmoveto
            16 -357 -16 241 vlineto
            514 callgsubr
            return
          </CharString>
          <CharString index="488">
            -86 388 callgsubr
            return
          </CharString>
          <CharString index="489">
            -1 -7 0 -7 -6 452 callsubr
            return
          </CharString>
          <CharString index="490">
            436 callgsubr
            23 477 callgsubr
            68 262 callgsubr
            16 return
          </CharString>
          <CharString index="491">
            16 109 16 19 539 callgsubr
            7 16 136 241 callsubr
            return
          </CharString>
          <CharString index="492">
            420 callsubr
            vlineto
            endchar
          </CharString>
          <CharString index="493">
            0 -7 -6 vvcurveto
            return
          </CharString>
          <CharString index="494">
            203 callsubr
            hintmask 1111111111100000
            -28 callgsubr
            return
          </CharString>
          <CharString index="495">
            406 callgsubr
            hlineto
            return
          </CharString>
          <CharString index="496">
            -9 16 14 436 callgsubr
            258 15 -15 16 167 508 callgsubr
            hstemhm
            return
          </CharString>
          <CharString index="497">
            16 hstem
            85 540 callsubr
            716 -22 callsubr
            -751 -16 572 return
          </CharString>
          <CharString index="498">
            37 48 144 16 248 16 215 16 hstemhm
            96 17 -4 49 247 17 return
          </CharString>
          <CharString index="499">
            509 callgsubr
            91 104 103 66 94 136 return
          </CharString>
          <CharString index="500">
            70 63 16 478 16 151 16 hstem
            85 502 callsubr
            return
          </CharString>
          <CharString index="501">
            -16 hlineto
            -102 -66 -86 -118 -131 -59 83 139 vhcurveto
            255 vlineto
            endchar
          </CharString>
          <CharString index="502">
            158 77 76 142 166 0 -92 -4 return
          </CharString>
          <CharString index="503">
            -130 -72 78 99 -11 hvcurveto
            -15 -254 16 return
          </CharString>
          <CharString index="504">
            16 136 507 callgsubr
            return
          </CharString>
          <CharString index="505">
            hlineto
            -69 callgsubr
            return
          </CharString>
          <CharString index="506">
            -7 475 callsubr
            return
          </CharString>
          <CharString index="507">
            17 -16 16 -15 15 return
          </CharString>
          <CharString index="508">
            57 -608 rmoveto
            -55 259 -15 hlineto
            -177 -261 rlineto
            -18 172 vlineto
            return
          </CharString>
          <CharString index="509">
            151 callgsubr
            343 callsubr
            return
          </CharString>
          <CharString index="510">
            -29 10 53 -88 145 hhcurveto
            125 54 70 80 89 -53 45 -64 16 hvcurveto
            return
          </CharString>
          <CharString index="511">
            75 39 -66 -102 hvcurveto
            -5 16 5 vlineto
            101 40 67 79 79 35 -63 -79 vhcurveto
            return
          </CharString>
          <CharString index="512">
            261 callgsubr
            290 16 18 17 return
          </CharString>
          <CharString index="513">
            348 callsubr
            15 282 callgsubr
            return
          </CharString>
          <CharString index="514">
            -59 callsubr
            116 return
          </CharString>
          <CharString index="515">
            88 84 32 153 hvcurveto
            161 return
          </CharString>
          <CharString index="516">
            -132 88 -82 132 116 return
          </CharString>
          <CharString index="517">
            -125 -104 -84 -138 -4 hvcurveto
            return
          </CharString>
          <CharString index="518">
            164 vlineto
            7 7 0 7 hhcurveto
            return
          </CharString>
          <CharString index="519">
            126 -104 38 -100 vhcurveto
            -45 hlineto
            return
          </CharString>
          <CharString index="520">
            -78 -131 vhcurveto
            17 hlineto
            140 return
          </CharString>
          <CharString index="521">
            -28 -87 76 -129 hhcurveto
            return
          </CharString>
          <CharString index="522">
            -68 -50 -80 -119 vhcurveto
            return
          </CharString>
          <CharString index="523">
            -21 -19 -3 -6 -17 hvcurveto
            return
          </CharString>
          <CharString index="524">
            446 133 16 411 16 148 507 callgsubr
            403 20 return
          </CharString>
          <CharString index="525">
            15 82 15 24 65 108 15 hstemhm
            -391 16 234 7 -7 16 return
          </CharString>
          <CharString index="526">
            303 callsubr
            -6 vlineto
            return
          </CharString>
          <CharString index="527">
            -119 28 87 -74 135 -29 callgsubr
            return
          </CharString>
          <CharString index="528">
            482 callgsubr
            254 17 return
          </CharString>
          <CharString index="529">
            vlineto
            207 callgsubr
            return
          </CharString>
          <CharString index="530">
            -16 135 -258 557 callgsubr
            258 return
          </CharString>
          <CharString index="531">
            16 -7 16 hstemhm
            329 callgsubr
            176 375 callgsubr
            return
          </CharString>
          <CharString index="532">
            15 -15 16 162 16 136 33 callsubr
            return
          </CharString>
          <CharString index="533">
            208 -8 18 331 18 333 18 return
          </CharString>
          <CharString index="534">
            278 -7 rmoveto
            140 68 92 85 hvcurveto
            return
          </CharString>
          <CharString index="535">
            457 callgsubr
            hvcurveto
            return
          </CharString>
          <CharString index="536">
            -312 vlineto
            62 -32 -70 69 -121 hhcurveto
            return
          </CharString>
          <CharString index="537">
            91 60 76 148 vhcurveto
            24 16 -24 hlineto
            return
          </CharString>
          <CharString index="538">
            376 313 callsubr
            vstem
            return
          </CharString>
          <CharString index="539">
            16 456 callgsubr
            return
          </CharString>
          <CharString index="540">
            -280 vlineto
            315 callgsubr
            return
          </CharString>
          <CharString index="541">
            -126 737 rmoveto
            return
          </CharString>
          <CharString index="542">
            17 136 17 return
          </CharString>
          <CharString index="543">
            -21 136 16 return
          </CharString>
          <CharString index="544">
            -166 19 740 -19 -365 vlineto
            96 414 callsubr
            return
          </CharString>
          <CharString index="545">
            -63 callgsubr
            -22 hlineto
            74 -32 -70 64 -115 hhcurveto
            return
          </CharString>
          <CharString index="546">
            -8 18 11 -21 232 18 203 18 222 18 -7 -20 hstemhm
            return
          </CharString>
          <CharString index="547">
            535 hmoveto
            410 208 vlineto
            53 33 18 28 18 hvcurveto
            -199 return
          </CharString>
          <CharString index="548">
            -62 callgsubr
            endchar
          </CharString>
          <CharString index="549">
            479 callgsubr
            endchar
          </CharString>
          <CharString index="550">
            18 325 18 return
          </CharString>
          <CharString index="551">
            92 334 rmoveto
            return
          </CharString>
          <CharString index="552">
            hlineto
            hintmask 10101000
            -53 -248 rlineto
            20 hlineto
            hintmask 01101000
            53 248 rlineto
            return
          </CharString>
          <CharString index="553">
            229 16 248 16 215 16 hstem
            327 callsubr
            return
          </CharString>
          <CharString index="554">
            -82 78 -124 -2 callgsubr
            return
          </CharString>
          <CharString index="555">
            rmoveto
            -51 -38 31 -7 hlineto
            -33 -11 -21 -32 vhcurveto
            -18 vlineto
            36 29 return
          </CharString>
          <CharString index="556">
            17 347 -15 callsubr
            return
          </CharString>
          <CharString index="557">
            98 52 116 137 3 vhcurveto
            121 3 56 -90 -82 vvcurveto
            return
          </CharString>
          <CharString index="558">
            180 callgsubr
            16 return
          </CharString>
          <CharString index="559">
            vvcurveto
            506 callsubr
            164 140 81 90 131 22 vhcurveto
            return
          </CharString>
          <CharString index="560">
            17 290 16 18 549 callgsubr
            return
          </CharString>
          <CharString index="561">
            147 callgsubr
            endchar
          </CharString>
          <CharString index="562">
            366 -67 callsubr
            return
          </CharString>
          <CharString index="563">
            38 167 callsubr
            336 17 return
          </CharString>
          <CharString index="564">
            67 19 16 347 16 326 16 return
          </CharString>
          <CharString index="565">
            -21 307 19 -17 17 358 20 return
          </CharString>
          <CharString index="566">
            -89 263 callsubr
            return
          </CharString>
          <CharString index="567">
            16 -7 45 callsubr
            return
          </CharString>
          <CharString index="568">
            -137 -95 -28 -112 vhcurveto
            return
          </CharString>
          <CharString index="569">
            vlineto
            -6 -21 -3 -24 -25 vvcurveto
            return
          </CharString>
          <CharString index="570">
            49 119 17 257 17 return
          </CharString>
          <CharString index="571">
            471 callsubr
            98 return
          </CharString>
          <CharString index="572">
            132 88 62 127 27 return
          </CharString>
          <CharString index="573">
            85 740 rmoveto
            -740 20 return
          </CharString>
          <CharString index="574">
            16 147 15 -15 16 return
          </CharString>
          <CharString index="575">
            352 callgsubr
            -15 15 return
          </CharString>
          <CharString index="576">
            vvcurveto
            74 65 25 72 vhcurveto
            return
          </CharString>
          <CharString index="577">
            -1 -7 386 callsubr
            return
          </CharString>
          <CharString index="578">
            -352 17 351 vlineto
            return
          </CharString>
          <CharString index="579">
            -77 61 -38 44 -12 return
          </CharString>
          <CharString index="580">
            -106 -89 -96 -120 return
          </CharString>
          <CharString index="581">
            -7 18 693 -20 return
          </CharString>
          <CharString index="582">
            18 518 18 return
          </CharString>
          <CharString index="583">
            -52 38 67 vvcurveto
            return
          </CharString>
          <CharString index="584">
            -21 129 16 return
          </CharString>
          <CharString index="585">
            17 221 17 return
          </CharString>
          <CharString index="586">
            301 -44 16 49 477 callsubr
            126 16 -8 8 return
          </CharString>
          <CharString index="587">
            562 callsubr
            vhcurveto
            248 callsubr
            147 return
          </CharString>
          <CharString index="588">
            -16 459 158 callgsubr
            return
          </CharString>
          <CharString index="589">
            15 -15 16 314 241 callsubr
            274 17 -1 16 return
          </CharString>
          <CharString index="590">
            -155 -105 76 135 145 110 67 135 vhcurveto
            return
          </CharString>
          <CharString index="591">
            551 -7 18 10 -21 261 18 250 18 -7 -20 return
          </CharString>
          <CharString index="592">
            -155 -108 -105 -172 -172 108 -105 155 return
          </CharString>
          <CharString index="593">
            -86 callsubr
            414 586 rmoveto
            16 return
          </CharString>
          <CharString index="594">
            -279 -170 vlineto
            -28 callgsubr
            return
          </CharString>
          <CharString index="595">
            -21 127 16 return
          </CharString>
          <CharString index="596">
            -21 138 16 return
          </CharString>
          <CharString index="597">
            17 250 17 return
          </CharString>
          <CharString index="598">
            -162 -152 return
          </CharString>
          <CharString index="599">
            22 -21 230 16 456 37 167 callsubr
            return
          </CharString>
          <CharString index="600">
            17 vstem
            165 742 rmoveto
            -742 17 742 vlineto
            return
          </CharString>
          <CharString index="601">
            105 704 rmoveto
            -20 -704 503 callsubr
            hlineto
            return
          </CharString>
          <CharString index="602">
            -177 171 rlineto
            117 10 82 88 119 vvcurveto
            return
          </CharString>
          <CharString index="603">
            142 -105 102 -142 4 vhcurveto
            165 367 16 return
          </CharString>
          <CharString index="604">
            17 405 16 455 callsubr
            return
          </CharString>
          <CharString index="605">
            120 -59 95 -115 4 vhcurveto
            164 vlineto
            endchar
          </CharString>
          <CharString index="606">
            163 vhcurveto
            166 293 callgsubr
            hlineto
            endchar
          </CharString>
          <CharString index="607">
            vlineto
            -58 callgsubr
            return
          </CharString>
          <CharString index="608">
            126 -104 38 -100 hvcurveto
            -45 hlineto
            return
          </CharString>
          <CharString index="609">
            180 callsubr
            vstem
            return
          </CharString>
          <CharString index="610">
            290 18 -270 return
          </CharString>
          <CharString index="611">
            -3 0 -3 -3 vvcurveto
            return
          </CharString>
          <CharString index="612">
            468 rmoveto
            113 return
          </CharString>
          <CharString index="613">
            -159 93 -103 return
          </CharString>
          <CharString index="614">
            16 202 16 return
          </CharString>
          <CharString index="615">
            -20 hstem
            85 20 502 callgsubr
            return
          </CharString>
          <CharString index="616">
            -2 -9 16 291 16 232 16 162 16 return
          </CharString>
          <CharString index="617">
            9 callsubr
            417 0 callsubr
            return
          </CharString>
          <CharString index="618">
            -364 65 callgsubr
            255 return
          </CharString>
          <CharString index="619">
            16 192 16 247 38 167 callsubr
            return
          </CharString>
          <CharString index="620">
            17 -5 17 306 17 150 12 435 17 return
          </CharString>
          <CharString index="621">
            -206 -675 rmoveto
            -167 -126 67 135 return
          </CharString>
          <CharString index="622">
            45 hlineto
            151 callgsubr
            return
          </CharString>
          <CharString index="623">
            73 28 43 64 109 vvcurveto
            123 vlineto
            endchar
          </CharString>
          <CharString index="624">
            264 callsubr
            endchar
          </CharString>
          <CharString index="625">
            93 57 65 99 95 55 return
          </CharString>
          <CharString index="626">
            -190 19 192 -21 return
          </CharString>
          <CharString index="627">
            67 callsubr
            hlineto
            return
          </CharString>
          <CharString index="628">
            16 218 15 -15 16 return
          </CharString>
          <CharString index="629">
            170 -17 -169 vlineto
            return
          </CharString>
          <CharString index="630">
            -144 17 254 17 return
          </CharString>
          <CharString index="631">
            -20 hlineto
            -261 return
          </CharString>
          <CharString index="632">
            3 -441 rmoveto
            return
          </CharString>
          <CharString index="633">
            17 -3 17 311 17 42 17 167 17 return
          </CharString>
          <CharString index="634">
            45 12 22 32 40 vvcurveto
            58 -46 38 -60 vhcurveto
            return
          </CharString>
          <CharString index="635">
            310 callgsubr
            -12 hlineto
            return
          </CharString>
          <CharString index="636">
            16 -8 309 callgsubr
            return
          </CharString>
          <CharString index="637">
            16 -8 8 -8 17 80 callsubr
            return
          </CharString>
          <CharString index="638">
            vhcurveto
            33 -16 -218 -166 rlineto
            -3 21 vlineto
            return
          </CharString>
          <CharString index="639">
            rmoveto
            -6 vlineto
            -345 331 rlineto
            345 hlineto
            return
          </CharString>
          <CharString index="640">
            19 51 18 hstem
            40 20 292 20 vstem
            40 return
          </CharString>
          <CharString index="641">
            93 65 callgsubr
            255 return
          </CharString>
          <CharString index="642">
            74 11 54 62 84 vvcurveto
            142 vlineto
            endchar
          </CharString>
          <CharString index="643">
            17 251 17 hintmask 1101111111000000
            return
          </CharString>
          <CharString index="644">
            842 591 rmoveto
            133 return
          </CharString>
          <CharString index="645">
            -20 265 callsubr
            return
          </CharString>
          <CharString index="646">
            16 140 241 callsubr
            return
          </CharString>
          <CharString index="647">
            377 callgsubr
            vstem
            return
          </CharString>
          <CharString index="648">
            -148 48 100 16 return
          </CharString>
          <CharString index="649">
            155 hvcurveto
            109 return
          </CharString>
          <CharString index="650">
            490 rmoveto
            16 return
          </CharString>
          <CharString index="651">
            -21 540 -20 return
          </CharString>
          <CharString index="652">
            vlineto
            17 -1 rlineto
            return
          </CharString>
          <CharString index="653">
            hvcurveto
            17 hlineto
            -3 return
          </CharString>
          <CharString index="654">
            -16 241 hlineto
            287 callgsubr
            return
          </CharString>
          <CharString index="655">
            521 callsubr
            85 16 -15 15 return
          </CharString>
          <CharString index="656">
            16 470 callgsubr
            220 17 return
          </CharString>
          <CharString index="657">
            -36 -163 vhcurveto
            -17 17 17 vlineto
            173 return
          </CharString>
          <CharString index="658">
            8 -179 rlineto
            16 hlineto
            7 179 rlineto
            return
          </CharString>
          <CharString index="659">
            16 435 399 callgsubr
            return
          </CharString>
          <CharString index="660">
            17 147 49 158 560 callsubr
            return
          </CharString>
          <CharString index="661">
            -317 740 -20 hstem
            40 187 vstem
            return
          </CharString>
          <CharString index="662">
            -78 -69 466 callgsubr
            12 return
          </CharString>
          <CharString index="663">
            -74 -86 -41 -123 -32 6 -36 14 -39 return
          </CharString>
          <CharString index="664">
            16 203 16 140 16 -7 16 hstemhm
            return
          </CharString>
          <CharString index="665">
            -145 109 -103 146 vhcurveto
            endchar
          </CharString>
          <CharString index="666">
            389 rmoveto
            -18 364 18 vlineto
            endchar
          </CharString>
          <CharString index="667">
            17 396 17 return
          </CharString>
          <CharString index="668">
            17 145 17 return
          </CharString>
          <CharString index="669">
            101 164 7 return
          </CharString>
          <CharString index="670">
            16 183 16 return
          </CharString>
        <CharString name=".notdef">
          -84 0 50 600 50 hstem
          0 50 400 50 vstem
          0 vmoveto
          500 700 -500 hlineto
          250 -305 rmoveto
          -170 255 rlineto
          340 hlineto
          -140 -300 rmoveto
          170 255 rlineto
          -510 vlineto
          -370 -45 rmoveto
          170 255 170 -255 rlineto
          -370 555 rmoveto
          170 -255 -170 -255 rlineto
          endchar
        </CharString>
        <CharString name="A">
          159 callsubr
          hstem
          30 541 -42 callgsubr
          -7 18 104 callgsubr
        </CharString>
        <CharString name="AE">
          389 callgsubr
          hintmask 11110100
          443 667 164 callgsubr
        </CharString>
        <CharString name="Aacute">
          159 callsubr
          66 -20 hstem
          30 541 -42 callgsubr
          -94 689 259 callgsubr
          87 -647 104 callgsubr
        </CharString>
        <CharString name="Abreve">
          159 callsubr
          76 18 hstem
          183 506 callgsubr
          -42 callgsubr
          -56 669 -68 callgsubr
          49 -651 104 callgsubr
        </CharString>
        <CharString name="Acircumflex">
          159 callsubr
          hstem
          30 541 -42 callgsubr
          -51 569 -46 callgsubr
          167 -632 104 callgsubr
        </CharString>
        <CharString name="Adieresis">
          159 callsubr
          87 60 hstem
          205 60 74 59 -42 callgsubr
          -240 576 -92 callgsubr
          99 -558 104 callgsubr
        </CharString>
        <CharString name="Agrave">
          159 callsubr
          66 -20 hstem
          30 541 -42 callgsubr
          -281 689 60 callsubr
          87 -537 104 callgsubr
        </CharString>
        <CharString name="Amacron">
          159 callsubr
          119 18 hstem
          30 541 -42 callgsubr
          -329 626 rmoveto
          -18 309 18 vlineto
          13 -608 104 callgsubr
        </CharString>
        <CharString name="Aogonek">
          17 -190 19 192 247 callgsubr
          hstem
          409 20 vstem
          311 683 rmoveto
          524 callsubr
          -683 rlineto
          23 hlineto
          74 194 rlineto
          348 hlineto
          70 -187 -50 -23 rlineto
          -62 -28 227 callgsubr
          51 19 22 4 8 21 vhcurveto
          77 callsubr
          375 callsubr
          hvcurveto
          72 33 rlineto
          -103 212 104 callgsubr
        </CharString>
        <CharString name="Aring">
          159 callsubr
          75 18 144 18 hstem
          211 20 140 20 -42 callgsubr
          -104 654 rmoveto
          -45 -30 -27 -40 -40 -30 27 45 45 30 27 40 40 30 -27 -45 vhcurveto
          20 hmoveto
          56 -41 34 -49 -49 -41 -34 -56 -56 41 -34 49 49 41 34 56 vhcurveto
          77 -636 104 callgsubr
        </CharString>
        <CharString name="Atilde">
          159 callsubr
          62 545 callgsubr
          205 476 callgsubr
          -42 callgsubr
          -270 553 -89 callgsubr
          263 -535 104 callgsubr
        </CharString>
        <CharString name="B">
          -24 0 20 336 20 308 20 hstemhm
          85 20 369 20 -4 20 hintmask 11110100
          490 188 rmoveto
          -104 -75 -64 -128 vhcurveto
          -182 336 180 hlineto
          128 77 -66 -102 hvcurveto
          hintmask 11111000
          -16 344 rmoveto
          -95 -62 -61 -119 vhcurveto
          -188 308 182 hlineto
          132 55 -64 -88 hvcurveto
          hintmask 11110100
          36 -344 rmoveto
          93 -65 70 -82 15 vhcurveto
          hintmask 11111000
          68 15 63 51 100 vvcurveto
          96 -60 76 -147 vhcurveto
          -202 -704 202 hlineto
          hintmask 11110100
          152 71 84 104 hvcurveto
          endchar
        </CharString>
        <CharString name="C">
          185 -7 444 callgsubr
          hstem
          60 21 -49 callsubr
          endchar
        </CharString>
        <CharString name="CR">
          -294 endchar
        </CharString>
        <CharString name="Cacute">
          185 -7 444 callgsubr
          38 -20 hstem
          60 21 -49 callsubr
          431 532 259 callgsubr
          endchar
        </CharString>
        <CharString name="Ccaron">
          185 -7 444 callgsubr
          hstem
          60 21 -49 callsubr
          474 510 -51 callgsubr
        </CharString>
        <CharString name="Ccedilla">
          185 415 callgsubr
          82 18 -17 17 682 18 hstemhm
          60 21 322 20 106 20 hintmask 11101111
          60 351 rmoveto
          -210 137 -148 191 vhcurveto
          5 5 0 5 hhcurveto
          -100 51 callsubr
          hintmask 11011111
          83 vlineto
          148 11 93 82 45 120 rrcurveto
          -20 hlineto
          hintmask 11101111
          -112 -41 -100 -84 -160 hhcurveto
          -170 -137 129 211 213 137 129 170 160 100 -84 -113 41 hvcurveto
          20 hlineto
          130 -48 -104 85 -169 hhcurveto
          -191 -137 -148 -212 hvcurveto
          endchar
        </CharString>
        <CharString name="Cdotaccent">
          185 -7 444 callgsubr
          37 60 hstem
          60 21 300 60 -49 callsubr
          351 397 -10 callgsubr
        </CharString>
        <CharString name="D">
          94 callgsubr
          endchar
        </CharString>
        <CharString name="Dcaron">
          94 callgsubr
          193 843 -51 callgsubr
        </CharString>
        <CharString name="Dcroat">
          40 callsubr
        </CharString>
        <CharString name="E">
          226 callsubr
          hstem
          85 20 vstem
          -45 callsubr
          endchar
        </CharString>
        <CharString name="Eacute">
          226 callsubr
          -18 63 0 -20 hstemhm
          85 20 hintmask 11101100
          -45 callsubr
          208 197 rmoveto
          hintmask 11010100
          -187 -134 rlineto
          hintmask 11101100
          -20 vlineto
          187 130 rlineto
          endchar
        </CharString>
        <CharString name="Ebreve">
          226 callsubr
          55 18 hstemhm
          85 20 10 506 callgsubr
          hintmask 11111010
          -45 callsubr
          246 177 rmoveto
          4 -20 vlineto
          -57 -36 -33 -62 vhcurveto
          hintmask 11111110
          -62 -36 33 57 hvcurveto
          -20 -4 hlineto
          -48 33 -56 85 vhcurveto
          hintmask 11111010
          85 33 56 48 hvcurveto
          endchar
        </CharString>
        <CharString name="Ecaron">
          226 callsubr
          hstem
          85 20 vstem
          -45 callsubr
          251 175 -51 callgsubr
        </CharString>
        <CharString name="Ecircumflex">
          226 callsubr
          hstem
          85 20 vstem
          -45 callsubr
          251 77 -46 callgsubr
          endchar
        </CharString>
        <CharString name="Edieresis">
          226 callsubr
          -18 144 -60 60 hstemhm
          85 20 32 60 74 59 hintmask 11101110
          -45 callsubr
          62 84 138 callsubr
          hvcurveto
          hintmask 11010110
          16 -14 161 callsubr
          vhcurveto
          hintmask 11101110
          -16 13 -14 17 vhcurveto
          hintmask 11101111
          134 hmoveto
          16 13 14 16 hvcurveto
          hintmask 11010111
          16 -13 161 callsubr
          vhcurveto
          hintmask 11101111
          -16 13 -14 17 vhcurveto
          endchar
        </CharString>
        <CharString name="Edotaccent">
          226 callsubr
          44 60 hstem
          85 20 98 60 vstem
          -45 callsubr
          128 62 -10 callgsubr
        </CharString>
        <CharString name="Egrave">
          226 callsubr
          -18 63 0 -20 hstemhm
          85 20 hintmask 11101100
          -45 callsubr
          21 197 rmoveto
          -24 vlineto
          187 -130 rlineto
          hintmask 11010100
          20 vlineto
          endchar
        </CharString>
        <CharString name="Emacron">
          226 callsubr
          98 18 hstem
          85 20 vstem
          -45 callsubr
          -27 134 193 callgsubr
        </CharString>
        <CharString name="Eogonek">
          -105 -190 19 171 204 callsubr
          hstem
          85 20 162 20 vstem
          429 686 rmoveto
          18 -344 -704 304 vlineto
          -36 -16 -34 callsubr
          375 callsubr
          hvcurveto
          72 33 rlineto
          18 -324 325 294 18 -294 325 vlineto
          endchar
        </CharString>
        <CharString name="Eth">
          40 callsubr
        </CharString>
        <CharString name="Euro">
          253 -7 18 242 18 142 18 262 18 hstem
          128 21 vstem
          128 351 rmoveto
          -28 2 -27 5 -25 vhcurveto
          -115 -18 119 hlineto
          -157 35 122 -103 160 hhcurveto
          169 104 85 129 48 hvcurveto
          -20 hlineto
          -112 -41 -100 -84 -160 hhcurveto
          -142 -119 90 152 -35 hvcurveto
          298 18 -302 hlineto
          -5 25 -2 27 28 vvcurveto
          22 1 20 3 20 vhcurveto
          305 18 -302 hlineto
          165 30 122 97 148 hhcurveto
          160 100 -84 -113 41 hvcurveto
          20 hlineto
          130 -48 -104 85 -169 hhcurveto
          -166 -125 -112 -168 -30 hvcurveto
          -115 -18 112 hlineto
          -3 -20 -1 -21 -21 vvcurveto
          endchar
        </CharString>
        <CharString name="F">
          -115 21 -21 343 443 callsubr
          hstem
          85 20 vstem
          85 704 rmoveto
          -704 20 343 294 18 -294 325 324 18 vlineto
          endchar
        </CharString>
        <CharString name="G">
          426 callsubr
          hstem
          60 21 632 19 vstem
          709 495 -50 callgsubr
          endchar
        </CharString>
        <CharString name="Gbreve">
          426 callsubr
          49 18 hstem
          60 21 212 506 callgsubr
          184 19 vstem
          709 495 -50 callgsubr
          -160 368 -68 callgsubr
          endchar
        </CharString>
        <CharString name="Gdotaccent">
          426 callsubr
          38 60 hstem
          60 21 300 60 272 19 vstem
          709 495 -50 callgsubr
          -278 253 -10 callgsubr
        </CharString>
        <CharString name="H">
          66 21 -21 353 18 333 -20 hstem
          85 20 439 20 vstem
          544 704 rmoveto
          -333 -439 333 -20 -704 20 353 439 -353 20 704 vlineto
          endchar
        </CharString>
        <CharString name="I">
          -394 266 callgsubr
          hstem
          85 20 vstem
          128 callsubr
          endchar
        </CharString>
        <CharString name="Iacute">
          -394 266 callgsubr
          65 -20 hstemhm
          -12 117 -20 20 hintmask 11101000
          128 callsubr
          70 179 rmoveto
          hintmask 11110000
          -65 callsubr
          endchar
        </CharString>
        <CharString name="Icircumflex">
          -394 266 callgsubr
          hstem
          85 20 vstem
          128 callsubr
          113 59 -46 callgsubr
          endchar
        </CharString>
        <CharString name="Idieresis">
          -394 266 callgsubr
          86 60 hstemhm
          -1 60 26 20 28 59 hintmask 11101000
          128 callsubr
          hintmask 11111100
          -76 66 -92 callgsubr
          endchar
        </CharString>
        <CharString name="Idotaccent">
          -394 266 callgsubr
          64 60 hstemhm
          65 40 -20 20 -20 40 hintmask 11101000
          128 callsubr
          hintmask 11100100
          -10 44 98 callgsubr
          hvcurveto
          hintmask 11110000
          -16 -14 -14 -16 hvcurveto
          hintmask 11100100
          -16 14 -14 16 vhcurveto
          endchar
        </CharString>
        <CharString name="Igrave">
          -394 266 callgsubr
          65 -20 hstemhm
          85 20 -20 90 hintmask 11110000
          128 callsubr
          -117 179 481 callgsubr
        </CharString>
        <CharString name="Imacron">
          -394 266 callgsubr
          118 18 hstem
          85 20 vstem
          128 callsubr
          -165 116 193 callgsubr
        </CharString>
        <CharString name="Iogonek">
          -394 519 callsubr
          704 -20 hstem
          -57 20 122 20 vstem
          85 704 rmoveto
          -695 vlineto
          -56 -25 -34 callsubr
          375 callsubr
          hvcurveto
          72 33 rlineto
          704 vlineto
          endchar
        </CharString>
        <CharString name="Itilde">
          -394 266 callgsubr
          61 545 callgsubr
          -1 18 68 20 106 18 vstem
          128 callsubr
          -106 43 -89 callgsubr
          endchar
        </CharString>
        <CharString name="J">
          -158 474 callsubr
          hstem
          30 20 276 20 vstem
          326 704 rmoveto
          -561 vlineto
          -58 -28 -74 -105 -107 -36 78 84 vhcurveto
          -20 hlineto
          -110 58 -70 105 99 54 67 83 vhcurveto
          561 vlineto
          endchar
        </CharString>
        <CharString name="K">
          -90 266 callgsubr
          hstem
          85 20 vstem
          447 704 rmoveto
          -342 -338 rlineto
          338 -20 -704 20 336 vlineto
          342 -336 rlineto
          27 hlineto
          -357 352 357 352 rlineto
          endchar
        </CharString>
        <CharString name="L">
          -189 0 18 686 -20 hstem
          85 20 vstem
          494 callsubr
          endchar
        </CharString>
        <CharString name="Lacute">
          -189 0 18 686 -20 65 -20 hstemhm
          85 20 -10 10 hintmask 11110000
          494 callsubr
          177 865 rmoveto
          hintmask 11101000
          -65 callsubr
          endchar
        </CharString>
        <CharString name="Lcaron">
          -189 0 18 539 20 74 53 hstem
          85 20 165 22 vstem
          288 704 rmoveto
          0 callgsubr
          -183 hmoveto
          536 callgsubr
        </CharString>
        <CharString name="Ldot">
          -189 0 18 330 60 296 -20 hstem
          85 20 187 60 vstem
          85 hmoveto
          503 callsubr
          686 -20 hlineto
          237 -356 -10 callgsubr
        </CharString>
        <CharString name="Lslash">
          -169 0 18 686 -20 hstem
          105 20 vstem
          125 704 rmoveto
          -20 -325 hlineto
          -95 -45 rlineto
          -20 vlineto
          95 45 rlineto
          -359 503 callsubr
          350 vlineto
          161 76 rlineto
          20 vlineto
          -161 -76 rlineto
          endchar
        </CharString>
        <CharString name="M">
          213 0 26 hstem
          85 20 587 20 vstem
          85 684 rmoveto
          -684 20 635 vlineto
          284 -635 rlineto
          20 hlineto
          283 635 rlineto
          -635 20 684 -20 vlineto
          -293 -658 -294 658 rlineto
          endchar
        </CharString>
        <CharString name="N">
          149 callgsubr
          endchar
        </CharString>
        <CharString name="NULL">
          -584 endchar
        </CharString>
        <CharString name="Nacute">
          63 0 343 callgsubr
          66 -20 hstemhm
          85 20 437 20 hintmask 01011110
          562 703 rmoveto
          -20 hlineto
          hintmask 10011110
          198 callsubr
          hintmask 01101110
          275 callgsubr
          -158 883 259 callgsubr
          endchar
        </CharString>
        <CharString name="Ncaron">
          149 callgsubr
          -115 861 -51 callgsubr
        </CharString>
        <CharString name="Ntilde">
          63 0 343 callgsubr
          62 18 32 18 hstemhm
          85 20 123 476 callgsubr
          84 20 hintmask 0101111111000000
          562 703 rmoveto
          -20 hlineto
          hintmask 1001111111000000
          198 callsubr
          hintmask 0110111111000000
          275 callgsubr
          -334 747 -89 callgsubr
          endchar
        </CharString>
        <CharString name="O">
          315 callsubr
          hstem
          60 21 630 -96 callgsubr
          endchar
        </CharString>
        <CharString name="OE">
          522 -8 18 -10 204 callsubr
          -12 18 hstemhm
          60 21 630 21 -20 20 hintmask 01110101
          732 686 rmoveto
          324 18 -344 -242 hlineto
          hintmask 10101101
          150 -32 -129 98 -155 hhcurveto
          -196 -140 -148 -211 -211 140 -148 196 155 129 98 150 32 hvcurveto
          hintmask 01110101
          -240 344 18 -324 325 294 18 -294 vlineto
          hintmask 10101110
          -651 -10 rmoveto
          212 140 129 175 175 140 -129 -212 -212 -140 -129 -175 86 callsubr
          vhcurveto
          endchar
        </CharString>
        <CharString name="Oacute">
          315 callsubr
          39 -20 hstem
          60 21 630 -96 callgsubr
          91 873 259 callgsubr
          endchar
        </CharString>
        <CharString name="Ocircumflex">
          315 callsubr
          hstem
          60 21 630 -96 callgsubr
          134 753 -46 callgsubr
          endchar
        </CharString>
        <CharString name="Odieresis">
          315 callsubr
          60 60 hstem
          60 21 230 60 74 59 207 -96 callgsubr
          -55 760 -92 callgsubr
          endchar
        </CharString>
        <CharString name="Ograve">
          315 callsubr
          39 -20 hstem
          60 21 630 -96 callgsubr
          -96 873 60 callsubr
          endchar
        </CharString>
        <CharString name="Ohungarumlaut">
          315 callsubr
          hstem
          60 21 630 -96 callgsubr
          22 838 90 callgsubr
        </CharString>
        <CharString name="Omacron">
          315 callsubr
          92 18 hstem
          60 21 630 -96 callgsubr
          -144 810 193 callgsubr
        </CharString>
        <CharString name="Oslash">
          208 -8 18 11 -21 692 18 -6 -20 hstemhm
          60 21 630 21 hintmask 10101100
          396 -8 rmoveto
          369 callgsubr
          hintmask 10011100
          103 -34 89 -57 63 vhcurveto
          90 98 rlineto
          -24 hlineto
          hintmask 01101100
          -78 -85 rlineto
          58 -59 -81 33 -93 hhcurveto
          -196 -140 -148 -211 -103 33 -88 57 -63 hvcurveto
          -89 -97 rlineto
          25 hlineto
          hintmask 10101100
          77 84 rlineto
          -58 59 80 -34 94 hhcurveto
          -315 359 rmoveto
          212 140 129 175 86 77 -31 -57 57 vhcurveto
          -453 -493 rlineto
          -51 59 -31 81 100 vvcurveto
          315 -341 rmoveto
          -86 -78 31 57 -56 hvcurveto
          452 493 rlineto
          52 -58 31 -82 -100 vvcurveto
          -212 -140 -129 -175 vhcurveto
          endchar
        </CharString>
        <CharString name="Otilde">
          315 callsubr
          35 545 callgsubr
          60 21 230 476 callgsubr
          170 -96 callgsubr
          -85 737 -89 callgsubr
          endchar
        </CharString>
        <CharString name="P">
          -56 21 -21 317 21 346 20 hstem
          85 20 363 20 vstem
          263 338 267 callsubr
          -178 -704 20 317 516 callgsubr
        </CharString>
        <CharString name="Q">
          315 callsubr
          hstem
          60 21 630 21 vstem
          396 10 rmoveto
          209 callgsubr
          175 140 -129 -212 -212 -140 -129 -175 hvcurveto
          -18 vmoveto
          39 37 6 11 34 hvcurveto
          202 -158 rlineto
          35 hlineto
          -213 167 rlineto
          123 51 79 123 159 vvcurveto
          211 -140 148 -196 -196 -140 -148 -211 -211 140 -148 196 vhcurveto
          endchar
        </CharString>
        <CharString name="R">
          -49 21 510 callgsubr
          364 21 hintmask 11011100
          469 506 2 callgsubr
          hintmask 10111100
          259 callsubr
          hintmask 11011100
          462 callgsubr
          endchar
        </CharString>
        <CharString name="Racute">
          -49 21 458 callsubr
          45 -20 hstemhm
          85 20 364 21 hintmask 11011110
          469 506 2 callgsubr
          hintmask 10111110
          259 callsubr
          hintmask 11011110
          462 callgsubr
          115 179 259 callgsubr
          endchar
        </CharString>
        <CharString name="Rcaron">
          -49 21 510 callgsubr
          364 21 hintmask 11011100
          469 506 2 callgsubr
          hintmask 10111100
          259 callsubr
          hintmask 11011100
          462 callgsubr
          158 157 -51 callgsubr
        </CharString>
        <CharString name="S">
          -48 -7 444 callgsubr
          hstemhm
          53 20 -8 20 381 20 hintmask 11101000
          427 callsubr
          hintmask 11011000
          -37 callgsubr
          hintmask 11101000
          209 callsubr
          endchar
        </CharString>
        <CharString name="Sacute">
          -48 -7 444 callgsubr
          38 -20 hstemhm
          53 20 -8 20 381 20 hintmask 11110100
          427 callsubr
          hintmask 11101100
          -37 callgsubr
          hintmask 11110100
          209 callsubr
          69 890 rmoveto
          hintmask 11101100
          -65 callsubr
          endchar
        </CharString>
        <CharString name="Scaron">
          -48 -7 444 callgsubr
          hstemhm
          53 20 -8 20 381 20 hintmask 11101000
          427 callsubr
          hintmask 11011000
          -37 callgsubr
          hintmask 11101000
          209 callsubr
          112 868 -51 callgsubr
        </CharString>
        <CharString name="T">
          294 callsubr
          endchar
        </CharString>
        <CharString name="Tcaron">
          294 callsubr
          -91 157 -51 callgsubr
        </CharString>
        <CharString name="Thorn">
          -56 21 -21 159 21 346 20 158 -20 hstem
          85 20 363 20 vstem
          263 180 267 callsubr
          -158 158 -20 -704 20 159 516 callgsubr
        </CharString>
        <CharString name="U">
          373 callsubr
          hstem
          80 20 429 -82 callgsubr
          endchar
        </CharString>
        <CharString name="Uacute">
          373 callsubr
          65 -20 hstem
          80 20 429 -82 callgsubr
          294 179 259 callgsubr
          endchar
        </CharString>
        <CharString name="Ubreve">
          373 callsubr
          75 18 hstem
          80 20 96 506 callgsubr
          97 -82 callgsubr
          332 159 -68 callgsubr
          endchar
        </CharString>
        <CharString name="Ucircumflex">
          373 callsubr
          hstem
          80 20 429 -82 callgsubr
          337 59 -46 callgsubr
          endchar
        </CharString>
        <CharString name="Udieresis">
          373 callsubr
          86 60 hstem
          80 20 118 60 74 59 118 -82 callgsubr
          148 66 -92 callgsubr
          endchar
        </CharString>
        <CharString name="Ugrave">
          373 callsubr
          65 -20 hstem
          80 20 429 -82 callgsubr
          107 179 60 callsubr
          endchar
        </CharString>
        <CharString name="Uhungarumlaut">
          373 callsubr
          hstem
          80 20 429 -82 callgsubr
          225 144 90 callgsubr
        </CharString>
        <CharString name="Umacron">
          373 callsubr
          118 18 hstem
          80 20 429 -82 callgsubr
          59 116 193 callgsubr
        </CharString>
        <CharString name="Uogonek">
          45 -190 19 164 18 693 -20 hstem
          80 20 116 20 293 20 vstem
          80 704 rmoveto
          -437 vlineto
          -194 99 -80 138 vhcurveto
          5 hlineto
          -20 -9 -34 callsubr
          375 callsubr
          hvcurveto
          68 31 rlineto
          106 20 69 83 166 vvcurveto
          437 -20 -437 vlineto
          -188 -90 -68 -122 -124 -93 68 188 vhcurveto
          437 vlineto
          endchar
        </CharString>
        <CharString name="Uring">
          373 callsubr
          74 18 144 18 hstem
          80 20 124 20 140 20 125 -82 callgsubr
          304 144 33 callgsubr
          endchar
        </CharString>
        <CharString name="Utilde">
          373 callsubr
          61 545 callgsubr
          80 20 118 476 callgsubr
          81 -82 callgsubr
          118 43 -89 callgsubr
          endchar
        </CharString>
        <CharString name="V">
          35 0 30 -9 490 callgsubr
          hstemhm
          30 559 hintmask 01110000
          567 704 rmoveto
          hintmask 10110000
          -258 -674 -256 674 rlineto
          -23 hlineto
          269 -704 rlineto
          20 hlineto
          270 704 rlineto
          endchar
        </CharString>
        <CharString name="W">
          -49 callgsubr
          endchar
        </CharString>
        <CharString name="Wacute">
          -49 callgsubr
          579 200 259 callgsubr
          endchar
        </CharString>
        <CharString name="Wcircumflex">
          -49 callgsubr
          519 80 -46 callgsubr
          endchar
        </CharString>
        <CharString name="Wdieresis">
          320 0 36 -36 39 -18 -21 671 33 0 -20 107 60 hstemhm
          356 60 74 59 hintmask 00101111
          35 704 rmoveto
          189 -704 rlineto
          18 hlineto
          hintmask 00110111
          209 671 209 -671 rlineto
          20 hlineto
          189 704 rlineto
          -22 hlineto
          hintmask 10001111
          -177 -668 -208 668 rlineto
          -22 hlineto
          hintmask 01001111
          -206 -665 -177 665 rlineto
          329 87 -92 callgsubr
          endchar
        </CharString>
        <CharString name="Wgrave">
          -49 callgsubr
          202 200 60 callsubr
          endchar
        </CharString>
        <CharString name="X">
          -84 266 callgsubr
          hstem
          30 440 vstem
          447 hmoveto
          23 hlineto
          -209 352 209 352 rlineto
          -23 hlineto
          -197 -333 -197 333 rlineto
          -23 hlineto
          206 -347 -206 -357 rlineto
          23 hlineto
          194 338 rlineto
          endchar
        </CharString>
        <CharString name="Y">
          -66 266 callgsubr
          hstem
          250 20 vstem
          -4 callgsubr
          endchar
        </CharString>
        <CharString name="Yacute">
          -66 266 callgsubr
          65 -20 hstem
          250 20 vstem
          -4 callgsubr
          286 179 259 callgsubr
          endchar
        </CharString>
        <CharString name="Ycircumflex">
          -66 266 callgsubr
          hstem
          250 20 vstem
          -4 callgsubr
          329 59 -46 callgsubr
          endchar
        </CharString>
        <CharString name="Ydieresis">
          -66 266 callgsubr
          86 60 hstemhm
          164 60 26 20 28 59 hintmask 11101000
          -4 callgsubr
          hintmask 11111100
          140 66 -92 callgsubr
          endchar
        </CharString>
        <CharString name="Ygrave">
          -66 266 callgsubr
          65 -20 hstem
          250 20 vstem
          -4 callgsubr
          99 179 60 callsubr
          endchar
        </CharString>
        <CharString name="Z">
          -97 0 19 665 20 hstem
          35 22 364 21 vstem
          106 callgsubr
          endchar
        </CharString>
        <CharString name="Zacute">
          -97 0 19 665 20 -20 65 0 -20 hstemhm
          35 22 364 21 hintmask 11011100
          106 callgsubr
          268 864 rmoveto
          hintmask 10101100
          -187 -134 rlineto
          hintmask 11011100
          -20 vlineto
          187 130 rlineto
          endchar
        </CharString>
        <CharString name="Zcaron">
          -97 0 19 665 20 hstem
          35 22 364 21 vstem
          106 callgsubr
          311 842 -51 callgsubr
        </CharString>
        <CharString name="Zdotaccent">
          -97 0 19 665 20 44 60 hstem
          35 22 158 60 146 21 vstem
          106 callgsubr
          188 729 -10 callgsubr
        </CharString>
        <CharString name="a">
          133 callsubr
          -7 538 callsubr
          hintmask 10101100
          -16 callsubr
          hintmask 01011100
          159 callgsubr
          hintmask 10101100
          -89 callsubr
          endchar
        </CharString>
        <CharString name="a.ss02">
          -11 129 callgsubr
          hstemhm
          60 18 391 19 hintmask 10111100
          469 156 rmoveto
          hintmask 01111100
          -156 19 -80 callsubr
          hintmask 10111100
          -77 callsubr
        </CharString>
        <CharString name="aacute">
          133 callsubr
          -7 -20 220 538 callsubr
          hintmask 10101110
          -16 callsubr
          hintmask 01011110
          159 callgsubr
          hintmask 10101110
          -89 callsubr
          -148 470 259 callgsubr
          endchar
        </CharString>
        <CharString name="aacute.ss02">
          -11 129 callgsubr
          195 -20 hstemhm
          60 18 391 19 hintmask 10111110
          419 453 callgsubr
          50 -560 rmoveto
          hintmask 01111110
          -156 19 -80 callsubr
          hintmask 10111110
          -77 callsubr
        </CharString>
        <CharString name="abreve">
          133 callsubr
          -7 -20 96 547 callgsubr
          141 506 callgsubr
          110 19 hintmask 1010111110000000
          -16 callsubr
          hintmask 0101111110000000
          159 callgsubr
          hintmask 1010111110000000
          -89 callsubr
          -110 450 -68 callgsubr
          endchar
        </CharString>
        <CharString name="abreve.ss02">
          -11 129 callgsubr
          71 18 hstemhm
          60 18 143 506 callgsubr
          12 19 hintmask 1011111110000000
          457 720 -68 callgsubr
          hintmask 1011111010000000
          12 -564 rmoveto
          hintmask 0111111010000000
          -156 19 -80 callsubr
          hintmask 1011111010000000
          -77 callsubr
        </CharString>
        <CharString name="acircumflex">
          133 callsubr
          -7 538 callsubr
          hintmask 10101100
          -16 callsubr
          hintmask 01011100
          159 callgsubr
          hintmask 10101100
          -89 callsubr
          -105 350 -46 callgsubr
          endchar
        </CharString>
        <CharString name="acircumflex.ss02">
          -11 129 callgsubr
          hstemhm
          60 18 391 19 hintmask 10111100
          462 620 -46 callgsubr
          130 -545 rmoveto
          hintmask 01111100
          -156 19 -80 callsubr
          hintmask 10111100
          -77 callsubr
        </CharString>
        <CharString name="acute">
          554 callsubr
          227 453 callgsubr
          endchar
        </CharString>
        <CharString name="adieresis">
          133 callsubr
          -7 -20 107 60 hstemhm
          60 20 163 60 74 59 131 19 hintmask 1010010010000000
          -16 callsubr
          hintmask 0101010010000000
          159 callgsubr
          hintmask 1010010010000000
          -89 callsubr
          hintmask 1010111110000000
          -294 357 -92 callgsubr
          endchar
        </CharString>
        <CharString name="adieresis.ss02">
          -11 129 callgsubr
          82 60 hstemhm
          60 18 165 60 74 59 33 19 hintmask 1011111110000000
          273 627 -92 callgsubr
          62 -471 rmoveto
          hintmask 0111111110000000
          -156 19 -80 callsubr
          hintmask 1011111110000000
          -77 callsubr
        </CharString>
        <CharString name="ae">
          484 callsubr
          474 callgsubr
          19 -19 20 470 18 hintmask 1011010110000000
          109 callsubr
          hintmask 1011011010000000
          -113 -100 -62 -120 -28 hvcurveto
          hintmask 1010111010000000
          175 -19 -174 vlineto
          hintmask 1011011010000000
          296 callgsubr
          hintmask 0111011010000000
          -174 19 175 vlineto
          hintmask 1011011010000000
          -122 28 100 -60 113 hhcurveto
          hintmask 1011010110000000
          104 callsubr
          hvcurveto
          -995 87 rmoveto
          161 95 98 148 141 103 -103 -156 -156 -103 -103 -141 -148 -95 98 161 vhcurveto
          endchar
        </CharString>
        <CharString name="agrave">
          133 callsubr
          -7 -20 220 538 callsubr
          hintmask 10101110
          -16 callsubr
          hintmask 01011110
          159 callgsubr
          hintmask 10101110
          -89 callsubr
          -335 470 60 callsubr
          endchar
        </CharString>
        <CharString name="agrave.ss02">
          -11 129 callgsubr
          195 -20 hstemhm
          60 18 391 19 hintmask 10111110
          232 740 60 callsubr
          50 -450 rmoveto
          hintmask 01111110
          -156 19 -80 callsubr
          hintmask 10111110
          -77 callsubr
        </CharString>
        <CharString name="amacron">
          133 callsubr
          -7 -20 139 18 265 callsubr
          hintmask 10101110
          -16 callsubr
          hintmask 01011110
          159 callgsubr
          hintmask 10101110
          -89 callsubr
          -383 407 193 callgsubr
        </CharString>
        <CharString name="amacron.ss02">
          -6 129 callgsubr
          114 18 hstemhm
          60 18 391 19 hintmask 10111110
          184 677 rmoveto
          -18 309 18 vlineto
          -24 -521 rmoveto
          hintmask 01111110
          -156 19 -80 callsubr
          hintmask 10111110
          -77 callsubr
        </CharString>
        <CharString name="ampersand">
          88 -10 19 12 -21 396 16.5 278.5 18 hstemhm
          43 20 65 20 268 20 hintmask 10111110
          416 573 rmoveto
          20 hlineto
          88 -76 48 -76 -92 -64 -55 -83 -56 30 -48 53 -54 vhcurveto
          -2 -1 rlineto
          -103 -40 -63 -70 -103 vvcurveto
          -124 95 -85 130 99 71 37 82 69 vhcurveto
          hintmask 01111110
          106 -109 rlineto
          24 hlineto
          -119 123 28 36 28 44 30 52 rlinecurve
          60 105 rlineto
          -21 hlineto
          -50 -87 -31 -54 -29 -45 -29 -37 rlinecurve
          -279 290 rlineto
          -48 49 -29 44 52 vvcurveto
          72 55 47 81 vhcurveto
          hintmask 10111110
          66 66 -42 -76 hvcurveto
          -148 -564 rmoveto
          -118 -87 79 111 91 51 66 100 38 hvcurveto
          11 4 268 -275 rlineto
          -78 -65 -67 -36 -93 hhcurveto
          endchar
        </CharString>
        <CharString name="ampersand.ss03">
          78 -7 20 8 -21 366 20 307 18 hstemhm
          40 20 121 20 202 20 59 20 hintmask 10111111
          337 711 rmoveto
          -105 -51 -72 -73 -76 38 -43 42 -43 hvcurveto
          44 -46 rlineto
          17 -19 -33 11 -36 hhcurveto
          -96 -81 -64 -128 -129 93 -72 104 108 78 78 109 28 -3 17 -9 18 hvcurveto
          hintmask 01111111
          227 -243 rlineto
          24 hlineto
          -397 428 rlineto
          -35 38 -29 36 64 vvcurveto
          66 46 61 90 90 55 -56 -91 -8 0 -8 -1 -9 vhcurveto
          20 hlineto
          1 9 0 9 9 vvcurveto
          hintmask 10111111
          80 -46 83 -119 vhcurveto
          -100 -698 rmoveto
          -93 -84 64 117 116 70 56 87 89 97 -78 -108 -97 -69 -70 -97 hvcurveto
          99 314 rmoveto
          -17 16 -1 2 -1 1 -1 2 rlinecurve
          endchar
        </CharString>
        <CharString name="aogonek">
          87 -190 19 164 228 callsubr
          -7 -20 hstemhm
          60 20 344 20 123 19 hintmask 11010111
          -16 callsubr
          -155 vlineto
          -57 -26 -34 callsubr
          hvcurveto
          hintmask 10101111
          375 callsubr
          vhcurveto
          72 33 rlineto
          540 -19 -165 vlineto
          hintmask 11010111
          -89 callsubr
          endchar
        </CharString>
        <CharString name="aogonek.ss02">
          -11 -190 19 161 17 14 -21 290 18 220 17 hstemhm
          60 18 248 20 123 19 hintmask 11011111
          469 156 rmoveto
          -146 vlineto
          -57 -26 -34 callsubr
          hvcurveto
          hintmask 10111111
          375 callsubr
          vhcurveto
          72 33 rlineto
          -80 callsubr
          hintmask 11011111
          -77 callsubr
        </CharString>
        <CharString name="apostrophemod.ss01">
          -462 593 20 74 53 hstem
          70 22 vstem
          88 740 rmoveto
          0 callgsubr
          endchar
        </CharString>
        <CharString name="approxequal">
          -172 268 19 51 18 87 533 callsubr
          268 rmoveto
          94 callsubr
          175 vmoveto
          94 callsubr
          endchar
        </CharString>
        <CharString name="aring">
          133 callsubr
          -7 -20 95 18 144 547 callgsubr
          169 20 140 20 138 19 hintmask 1010111111000000
          -16 callsubr
          hintmask 0101111111000000
          159 callgsubr
          hintmask 1010111111000000
          -89 callsubr
          -138 435 33 callgsubr
          endchar
        </CharString>
        <CharString name="aring.ss02">
          -11 129 callgsubr
          70 18 144 18 hstemhm
          60 18 171 20 140 20 40 19 hintmask 1011111111000000
          429 705 33 callgsubr
          60 -549 rmoveto
          hintmask 0111111111000000
          -156 19 -80 callsubr
          hintmask 1011111111000000
          -77 callsubr
        </CharString>
        <CharString name="asciicircum">
          -32 174 509 hstem
          40 472 vstem
          277 653 rmoveto
          215 -479 rlineto
          20 hlineto
          -230 509 rlineto
          -12 hlineto
          -230 -509 rlineto
          20 hlineto
          endchar
        </CharString>
        <CharString name="asciitilde">
          -172 279 533 callsubr
          279 rmoveto
          94 callsubr
          endchar
        </CharString>
        <CharString name="asterisk">
          -155 545 -20 hstem
          209 18 vstem
          226 559 rmoveto
          2 169 rlineto
          -20 hlineto
          2 -169 -144 83 -10 -18 147 -79 -149 -78 10 -18 146 82 -2 -171 rlineto
          20 hlineto
          -2 171 146 -82 10 18 -149 78 147 79 -10 18 rlineto
          endchar
        </CharString>
        <CharString name="at">
          391 -186 18 163 18 406 18 169 18 hstemhm
          80 20 181 20 327 17 7 11 212 20 hintmask 1111111010000000
          423 -186 rmoveto
          60 62 12 20 53 hvcurveto
          -5 18 rlineto
          -20 -50 -56 -12 -58 hhcurveto
          -196 -134 119 196 1 hvcurveto
          251 1 189 208 250 hhcurveto
          200 135 -126 -190 -132 -61 -145 -99 -54 -25 48 65 12 hvcurveto
          hintmask 1111110110000000
          52 296 rlineto
          -18 hlineto
          -19 -109 rlineto
          80 -12 -56 44 -78 hhcurveto
          -141 -95 -131 -143 -102 58 -66 100 hvcurveto
          hintmask 1111111010000000
          76 73 42 76 40 hvcurveto
          -67 -7 27 -51 64 hhcurveto
          117 66 150 149 194 -145 136 -207 -267 -196 -210 -272 -202 141 -126 202 hvcurveto
          92 605 rmoveto
          hintmask 1111110110000000
          111 42 -92 -111 -22 hvcurveto
          -135 -24 -86 -68 -93 hhcurveto
          -89 -53 58 94 hvcurveto
          hintmask 1111111010000000
          129 83 125 131 vhcurveto
          endchar
        </CharString>
        <CharString name="atilde">
          133 callsubr
          -7 -20 82 18 32 547 callgsubr
          163 476 callgsubr
          94 19 hintmask 1010111111000000
          -16 callsubr
          hintmask 0101111111000000
          159 callgsubr
          hintmask 1010111111000000
          -89 callsubr
          -324 334 -89 callgsubr
          endchar
        </CharString>
        <CharString name="atilde.ss02">
          -11 129 callgsubr
          57 18 32 18 hstemhm
          60 18 165 476 callgsubr
          -4 19 hintmask 1011111101000000
          243 604 rmoveto
          18 hlineto
          33 4 15 15 23 hhcurveto
          hintmask 1011111110000000
          42 14 -50 52 hhcurveto
          34 26 29 36 2 hvcurveto
          -18 hlineto
          -31 -4 -19 -16 -21 -47 -11 50 -50 hhcurveto
          hintmask 1011111101000000
          -34 -21 -26 -40 -5 hvcurveto
          226 -448 rmoveto
          hintmask 0111111101000000
          -156 19 -80 callsubr
          hintmask 1011111101000000
          -77 callsubr
        </CharString>
        <CharString name="b">
          133 callsubr
          193 -20 hstemhm
          85 19 487 20 hintmask 10111100
          104 375 rmoveto
          365 -19 vlineto
          hintmask 01111100
          -740 19 165 vlineto
          hintmask 10111100
          -96 29 86 -76 129 454 callgsubr
          -129 -84 -76 -96 -31 hvcurveto
          487 -105 150 callsubr
        </CharString>
        <CharString name="backslash">
          -110 -156 1091 hstem
          30 375 vstem
          405 -156 rmoveto
          -352 1091 rlineto
          -23 hlineto
          354 -1091 rlineto
          endchar
        </CharString>
        <CharString name="bar">
          551 callgsubr
          778 rmoveto
          -20 -864 20 hlineto
          endchar
        </CharString>
        <CharString name="braceleft">
          -289 -185 18 1078 18 hstemhm
          40 12 72 20 9 20 hintmask 11110000
          40 360 rmoveto
          hintmask 11111000
          108 -34 5 -67 -45 -84 -29 -84 -93 vvcurveto
          hintmask 11110000
          -100 53 -38 86 vhcurveto
          31 18 -31 hlineto
          -74 -45 32 88 hvcurveto
          97 29 89 75 vvcurveto
          hintmask 11111000
          74 -35 62 -86 21 vhcurveto
          2 vlineto
          86 21 35 62 74 75 -29 89 97 vvcurveto
          hintmask 11110000
          88 45 32 74 vhcurveto
          31 18 -31 hlineto
          -86 -53 -38 -100 hvcurveto
          -93 29 -84 -84 vvcurveto
          hintmask 11111000
          -45 -5 -67 -108 -34 vhcurveto
          endchar
        </CharString>
        <CharString name="braceright">
          -289 -185 1114 hstem
          1 254 vstem
          255 360 rmoveto
          -108 -34 -5 -67 -45 -84 29 -84 -93 vvcurveto
          -100 -53 -38 -86 vhcurveto
          -31 18 31 hlineto
          74 45 32 88 hvcurveto
          97 -29 89 75 vvcurveto
          74 35 62 86 21 vhcurveto
          2 vlineto
          -86 21 -35 62 74 75 29 89 97 vvcurveto
          88 -45 32 -74 vhcurveto
          -31 18 31 hlineto
          86 53 -38 -100 hvcurveto
          -93 -29 -84 -84 vvcurveto
          -45 5 -67 108 -34 vhcurveto
          endchar
        </CharString>
        <CharString name="bracketleft">
          -351 -185 18 1083 18 hstem
          85 20 vstem
          85 934 rmoveto
          -1119 94 18 -74 1083 74 18 vlineto
          endchar
        </CharString>
        <CharString name="bracketright">
          -351 -185 1119 hstem
          54 94 vstem
          148 934 rmoveto
          -1119 -94 18 74 1083 -74 18 vlineto
          endchar
        </CharString>
        <CharString name="breve">
          -268 616 18 hstem
          40 506 callgsubr
          vstem
          276 720 -68 callgsubr
          endchar
        </CharString>
        <CharString name="brokenbar">
          551 callgsubr
          265 rmoveto
          -20 -351 20 hlineto
          -20 514 rmoveto
          20 350 -20 hlineto
          endchar
        </CharString>
        <CharString name="bullet">
          -328 236 196 hstem
          30 196 vstem
          128 236 rmoveto
          55 43 43 54 55 -43 44 -55 -54 -44 -44 -55 -54 44 -43 54 hvcurveto
          endchar
        </CharString>
        <CharString name="c">
          44 399 callsubr
          hstem
          60 20 -41 callsubr
          endchar
        </CharString>
        <CharString name="cacute">
          44 399 callsubr
          193 -20 hstem
          60 20 -41 callsubr
          337 470 259 callgsubr
          endchar
        </CharString>
        <CharString name="caron">
          -257 617 101 hstem
          40 247 vstem
          287 718 -51 callgsubr
        </CharString>
        <CharString name="ccaron">
          44 399 callsubr
          hstem
          60 20 -41 callsubr
          380 448 -51 callgsubr
        </CharString>
        <CharString name="ccedilla">
          44 415 callgsubr
          82 475 callsubr
          hstem
          60 20 229 20 106 20 vstem
          60 270 rmoveto
          -170 105 -102 144 -5 vhcurveto
          -100 51 callsubr
          82 vlineto
          135 3 86 78 18 109 rrcurveto
          -20 hlineto
          -107 -17 -91 -65 -120 hhcurveto
          -124 -116 541 callgsubr
          116 80 124 120 91 -65 -107 17 hvcurveto
          20 hlineto
          111 -18 -90 79 -140 hhcurveto
          -150 -110 -103 -174 hvcurveto
          endchar
        </CharString>
        <CharString name="cdotaccent">
          44 399 callsubr
          58 60 hstem
          60 20 207 60 -41 callsubr
          257 335 -10 callgsubr
        </CharString>
        <CharString name="cedilla">
          -335 415 callgsubr
          hstem
          63 20 106 20 vstem
          83 -89 rmoveto
          96 -20 -114 51 callsubr
          endchar
        </CharString>
        <CharString name="cent">
          4 23 18 -17 17 458 547 callgsubr
          202 20 hintmask 10111000
          282 623 rmoveto
          -107 vlineto
          -129 -7 -93 -91 -148 vvcurveto
          hintmask 01111000
          -148 93 -91 129 -7 vhcurveto
          -117 20 vlineto
          hintmask 10111000
          116 vlineto
          127 81 79 111 18 hvcurveto
          -20 hlineto
          -107 -17 -82 -65 -109 hhcurveto
          -114 -106 71 158 158 106 71 114 109 82 -65 -107 17 hvcurveto
          20 hlineto
          -18 110 -80 79 -128 1 rrcurveto
          106 vlineto
          endchar
        </CharString>
        <CharString name="circumflex">
          -257 620 101 hstem
          40 247 vstem
          287 620 -46 callgsubr
          endchar
        </CharString>
        <CharString name="colon">
          -468 -2 54 399 54 hstem
          32 52 vstem
          58 390 callgsubr
          453 vmoveto
          253 callgsubr
        </CharString>
        <CharString name="colon.ss01">
          -471 0 49 405 49 hstem
          31 50 vstem
          31 49 376 callsubr
          -50 454 376 callsubr
          endchar
        </CharString>
        <CharString name="comma">
          -471 -155 248 hstem
          -23 103 vstem
          54 93 499 callgsubr
        </CharString>
        <CharString name="comma.ss01">
          -465 -86 18 61 38 hstem
          68 22 vstem
          88 333 callgsubr
          endchar
        </CharString>
        <CharString name="copyright">
          219 2 19 -19 112 19 438 -302 166 155 112 -19 19 hstemhm
          60 20 -20 131 532 20 hintmask 1000011010000000
          402 702 rmoveto
          -203 -139 -145 -205 -205 139 -145 203 203 138 145 205 205 -138 145 -203 hvcurveto
          -19 vmoveto
          197 124 -141 -190 -190 -124 -141 -197 -198 -124 141 190 190 124 141 198 hvcurveto
          hintmask 1001100110000000
          3 -93 rmoveto
          91 84 -53 -102 28 hvcurveto
          -21 hlineto
          hintmask 1010011010000000
          90 -28 -75 46 -79 hhcurveto
          -100 -94 -74 -146 -144 94 -74 100 hvcurveto
          hintmask 0101010110000000
          79 75 46 90 28 hvcurveto
          21 hlineto
          -102 -28 -84 -53 -91 hhcurveto
          -113 -101 81 158 hvcurveto
          hintmask 1001100110000000
          156 101 81 113 vhcurveto
          endchar
        </CharString>
        <CharString name="currency">
          -83 205 18 308 18 hstem
          100 20 261 20 vstem
          250 531 rmoveto
          69 62 -59 -95 -97 -63 -57 -68 -74 -56 57 97 95 56 59 74 hvcurveto
          163 -341 rmoveto
          14 13 -62 60 rlineto
          22 29 14 39 46 vvcurveto
          46 -14 39 -23 29 vhcurveto
          63 62 -14 13 -61 -61 rlineto
          28 -28 -36 16 -38 hhcurveto
          -40 -36 -16 -28 -27 hvcurveto
          -61 61 -14 -13 63 -61 rlineto
          -22 -30 -13 -39 -46 vvcurveto
          -46 12 -39 22 -29 vhcurveto
          -62 -60 14 -13 59 59 rlineto
          -28 27 36 -16 42 hhcurveto
          39 37 16 29 27 hvcurveto
          endchar
        </CharString>
        <CharString name="d">
          133 callsubr
          193 538 callsubr
          hintmask 10111100
          60 270 rmoveto
          -172 108 -105 155 129 87 76 97 28 vhcurveto
          hintmask 01111100
          437 callsubr
          hintmask 10111100
          230 callgsubr
        </CharString>
        <CharString name="dagger">
          -155 -233 -21 775.5 18.5 hstem
          206.5 16.5 vstem
          399 540 rmoveto
          -177 -3 2 237 rlineto
          -18 hlineto
          1 -237 -177 3 rlineto
          -20 vlineto
          177 3 -1 -777 rlineto
          18 hlineto
          -2 777 177 -3 rlineto
          endchar
        </CharString>
        <CharString name="daggerdbl">
          -154 -233 -21 235.5 17.5 522.5 18.5 hstemhm
          30 193 -16 16 -16 16.5 -15.5 15 -15 192 hintmask 11100001
          400 520 rmoveto
          20 vlineto
          hintmask 11100100
          -177 -3 1 237 rlineto
          hintmask 11101000
          -18 hlineto
          2 -237 rlineto
          hintmask 11110000
          -178 3 rlineto
          -20 vlineto
          hintmask 11100010
          178 3 rlineto
          -526 vlineto
          hintmask 11110000
          -178 4 rlineto
          -21 vlineto
          hintmask 11101000
          178 3 -2 -237 rlineto
          hintmask 11100100
          18 hlineto
          -1 237 rlineto
          hintmask 11100001
          177 -3 rlineto
          21 vlineto
          hintmask 11101000
          -177 -4 rlineto
          526 vlineto
          endchar
        </CharString>
        <CharString name="danda">
          -357 21 -21 742 -20 hstem
          165 493 callsubr
          endchar
        </CharString>
        <CharString name="dcaron">
          133 callsubr
          46 20 74 53 265 callsubr
          94 22 hintmask 10111111
          698 740 rmoveto
          0 callgsubr
          -638 -470 rmoveto
          -172 108 -105 155 129 87 76 97 28 vhcurveto
          hintmask 01111111
          437 callsubr
          hintmask 10111111
          230 callgsubr
        </CharString>
        <CharString name="dcroat">
          80 161 callgsubr
          103 18 -18 90 265 callsubr
          hintmask 10110110
          60 270 rmoveto
          -172 108 -105 155 129 87 76 97 28 vhcurveto
          hintmask 01110110
          -166 19 650 68 18 -68 vlineto
          hintmask 10101110
          72 -19 vlineto
          hintmask 10110110
          -72 -205 -18 205 -275 vlineto
          -89 callsubr
          endchar
        </CharString>
        <CharString name="degree">
          -228 347 18 308 18 hstem
          30 20 256 20 vstem
          30 519 rmoveto
          -103 59 -69 89 89 59 69 103 103 -59 69 -89 -89 -59 -69 -103 vhcurveto
          276 hmoveto
          -97 -50 -57 -78 -78 -50 57 97 97 50 57 78 78 50 -57 -97 vhcurveto
          endchar
        </CharString>
        <CharString name="dieresis">
          -265 627 60 hstem
          63 60 74 59 vstem
          93 627 -92 callgsubr
          endchar
        </CharString>
        <CharString name="divide">
          5 140 54 177 18 179 54 hstem
          270 52 471 callgsubr
          509 18 vlineto
          -253 -249 rmoveto
          -27 callgsubr
          428 vmoveto
          253 callgsubr
        </CharString>
        <CharString name="divide.ss01">
          5 145 49 177 18 180 49 hstem
          270 50 471 callgsubr
          509 18 vlineto
          -279 -195 376 callsubr
          -50 424 376 callsubr
          endchar
        </CharString>
        <CharString name="dollar">
          -48 -7 18 -17 17 -17 18 679 19 -17 17 -17 547 callgsubr
          -17 20 175 20 178 20 hintmask 1000011011000000
          258 800 rmoveto
          -89 vlineto
          -3 -2 0 -3 hhcurveto
          -127 -63 -76 -92 -130 99 -31 99 -29 hvcurveto
          hintmask 0010010111000000
          -341 vlineto
          -118 12 -50 91 -7 54 rrcurveto
          -20 hlineto
          hintmask 0100010111000000
          9 -83 71 -81 115 -11 rrcurveto
          hintmask 1001001011000000
          -81 20 80 vlineto
          2 3 0 2 hhcurveto
          140 51 95 81 136 -99 33 -99 29 hvcurveto
          324 vlineto
          105 -11 45 -75 11 -46 rrcurveto
          20 hlineto
          hintmask 1000101011000000
          -14 63 -54 77 -113 11 rrcurveto
          hintmask 1000011011000000
          90 vlineto
          -198 -257 rmoveto
          97 69 53 101 vhcurveto
          3 2 0 3 hhcurveto
          -320 vlineto
          -92 27 -86 30 113 vvcurveto
          205 -532 rmoveto
          -7 336 hlineto
          92 -28 86 -32 -118 vvcurveto
          -85 -55 -73 -116 vhcurveto
          endchar
        </CharString>
        <CharString name="dotaccent">
          -430 627 60 hstem
          47 60 vstem
          77 627 -10 callgsubr
        </CharString>
        <CharString name="dotlessi">
          361 callgsubr
          endchar
        </CharString>
        <CharString name="dottedcircle">
          67 -9 84 -70 84 -52 84 -40 84 -32 84 -23 84 -25 84 -22 84 -32 84 -37 84 -57 84 -69 84 hstemhm
          50 86 -71 86 -56 86 -40 86 -34 86 -21 86 -27 86 -24 86 -33 86 -47 86 -52 86 -76 86 hintmask 000100001000001000000100
          557 409 -25 callsubr
          -376 -286 -25 callsubr
          hintmask 010001000000100010000000
          98 -76 -25 callsubr
          -143 189 -25 callsubr
          hintmask 100000010000010000100000
          267 -203 -25 callsubr
          -252 324 -25 callsubr
          hintmask 001000000100000100001000
          367 -278 -25 callsubr
          -291 377 -25 callsubr
          hintmask 000010000001000001000010
          364 -281 -25 callsubr
          -247 323 -25 callsubr
          hintmask 000000100010000000010001
          257 -203 -25 callsubr
          -136 188 -25 callsubr
          endchar
        </CharString>
        <CharString name="doubledanda">
          -202 21 -21 742 -20 hstem
          165 17 138 493 callsubr
          138 hmoveto
          -742 17 742 vlineto
          endchar
        </CharString>
        <CharString name="dvA">
          233 35 callgsubr
          hstemhm
          86 17 -8 17 351 17 -3 17 179 17 hintmask 1100110100110000
          260 424 rmoveto
          -16 34 vlineto
          -5 callsubr
          hintmask 1110010100110000
          322 callgsubr
          hintmask 1101001011010000
          -31 callsubr
          hintmask 1100110101010000
          415 callsubr
          endchar
        </CharString>
        <CharString name="dvAA">
          494 35 callgsubr
          hstemhm
          86 17 -8 17 351 17 -3 17 179 17 254 17 hintmask 1100110100111000
          260 424 rmoveto
          -16 34 vlineto
          -5 callsubr
          hintmask 1110010100111000
          268 callgsubr
          hintmask 1101001011011000
          -31 callsubr
          hintmask 1100110101011000
          415 callsubr
          endchar
        </CharString>
        <CharString name="dvAI">
          457 callsubr
          208 16 hstemhm
          120 17 398 17 0 17 hintmask 10111100
          350 19 rmoveto
          hintmask 10111010
          176 callsubr
          hintmask 11111100
          177 callgsubr
          134 16 -135 vlineto
          215 -133 -47 9 -111 139 callsubr
          105 43 -10 -198 125 hvcurveto
          -568 -16 155 -446 hlineto
          hintmask 10111100
          -155 70 -104 160 vhcurveto
          endchar
        </CharString>
        <CharString name="dvAU">
          504 35 callgsubr
          109 16 124 421 callsubr
          hintmask 1110010111010110
          690 hmoveto
          282 callsubr
          -163 vlineto
          263 -133 -47 11 -111 117 callsubr
          -270 -339 -276 hlineto
          hintmask 1101001110110110
          -31 callsubr
          hintmask 1100110111010110
          415 callsubr
          -34 -16 34 hlineto
          hintmask 1100110111001110
          -5 callsubr
          hintmask 1110010111001110
          170 callsubr
          vlineto
          endchar
        </CharString>
        <CharString name="dvAbbreviationsign">
          -75 204 16 280 16 hstem
          94 17 287 17 vstem
          257 516 rmoveto
          -95 -68 -65 -91 -91 68 -65 95 93 65 64 90 93 -65 65 -93 hvcurveto
          -16 vmoveto
          83 58 -59 -83 -81 -58 -57 -83 -86 -60 58 82 82 60 58 86 hvcurveto
          endchar
        </CharString>
        <CharString name="dvAcandra">
          233 35 callgsubr
          105 307 callsubr
          25 16 138 17 155 16 hintmask 1100110110011110
          260 424 rmoveto
          -16 34 vlineto
          -5 callsubr
          hintmask 1110010110011110
          322 callgsubr
          hintmask 1101001101101110
          -31 callsubr
          hintmask 1100110110101110
          415 callsubr
          567 272 callsubr
        </CharString>
        <CharString name="dvAnusvara">
          -584 855 48 hstem
          -160 49 vstem
          -111 879 -102 callsubr
        </CharString>
        <CharString name="dvAnusvara.amI">
          -584 855 48 hstem
          89 49 vstem
          138 879 -102 callsubr
        </CharString>
        <CharString name="dvAvagraha">
          -26 75 16 565 16 hstem
          147 151 callsubr
          vstem
          324 75 rmoveto
          95 32 54 48 hvcurveto
          149 -287 102 143 vvcurveto
          69 55 16 64 vhcurveto
          180 16 -182 hlineto
          -69 -65 -21 -80 hvcurveto
          -155 287 -101 -138 vvcurveto
          -46 -36 -40 -74 vhcurveto
          -231 -16 hlineto
          endchar
        </CharString>
        <CharString name="dvB">
          378 callsubr
          355 rmoveto
          106 -72 132 -166 -24 callgsubr
          146 89 111 124 vhcurveto
          -238 222 -96 callsubr
          238 147 rmoveto
          16 -597 -16 vlineto
          362 44 callsubr
          endchar
        </CharString>
        <CharString name="dvBA">
          106 21 -21 180 callgsubr
          17 vstem
          563 63 callgsubr
          -760 -16 581 -280 vlineto
          79 -28 -74 70 -120 -20 callsubr
          118 73 68 77 28 hvcurveto
          -265 vlineto
          -222 577 -58 callsubr
          endchar
        </CharString>
        <CharString name="dvBH">
          -101 136 352 callgsubr
          287 309 callgsubr
          hintmask 11110100
          28 callgsubr
          146 callgsubr
          -61 -94 -78 callsubr
          hvcurveto
          endchar
        </CharString>
        <CharString name="dvBHA">
          159 21 -21 136 16 277 16 279 529 callsubr
          200 17 hintmask 1111010110000000
          249 5 callgsubr
          hintmask 1110101110000000
          -60 callsubr
          hintmask 1111010110000000
          441 callsubr
        </CharString>
        <CharString name="dvBH_LA">
          800 104 17 15 352 callgsubr
          99 16 164 529 callsubr
          175 -15 callsubr
          hintmask 1111101011011100
          28 callgsubr
          187 vlineto
          -8 -27 -4 -29 -32 vvcurveto
          hintmask 1011101011011100
          103 callsubr
          vhcurveto
          -87 callgsubr
          -1 11 11 -1 11 hhcurveto
          -60 callgsubr
          -880 -16 569 -164 vlineto
          hintmask 1011010111101100
          39 callgsubr
          -87 -58 -45 -70 -28 hvcurveto
          -193 112 hlineto
          -60 callsubr
          hintmask 1111101011011100
          441 callsubr
        </CharString>
        <CharString name="dvBH_NA">
          675 292 callsubr
          8 16 253 16 50 16 -15 15 213 529 callsubr
          175 69 callsubr
          hintmask 1111011010111100
          28 callgsubr
          200 vlineto
          -16 -27 -9 -32 -36 vvcurveto
          hintmask 1011011010111100
          185 callsubr
          -496 99 callsubr
          -720 -16 541 358 callgsubr
          hlineto
          -65 -53 -24 -42 -32 hvcurveto
          -211 112 hlineto
          hintmask 1011010101111100
          -60 callsubr
          hintmask 1111011010111100
          -62 callgsubr
          hintmask 1011101010111100
          192 9 100 callgsubr
        </CharString>
        <CharString name="dvBH_R">
          -101 156 16 257 16 287 309 callgsubr
          hintmask 11110100
          334 callgsubr
          150 173 rmoveto
          84 146 callgsubr
          -57 -88 371 callsubr
          hvcurveto
          -106 -405 rmoveto
          299 300 rlineto
          23 vlineto
          -323 -323 rlineto
          endchar
        </CharString>
        <CharString name="dvBH_RA">
          159 21 -21 156 16 257 16 279 529 callsubr
          220 17 hintmask 1111010110000000
          334 callgsubr
          150 173 rmoveto
          101 callsubr
          hintmask 1110101110000000
          -60 callsubr
          hintmask 1111010110000000
          442 callsubr
        </CharString>
        <CharString name="dvBH_R_YA">
          619 317 callgsubr
          2 16 257 16 279 529 callsubr
          165 -67 callsubr
          hintmask 1011101011110000
          334 callgsubr
          hintmask 1101101011110000
          575 -18 4 callgsubr
          hintmask 1011101011110000
          -425 191 rmoveto
          84 344 callgsubr
          -59 11 -51 21 -43 vhcurveto
          -327 -327 rlineto
          24 hlineto
          311 312 rlineto
          hintmask 1101101011110000
          -72 42 75 -42 102 -50 callsubr
          162 16 -693 -16 246 -89 vlineto
          -149 -95 -41 -112 vhcurveto
          -185 112 hlineto
          hintmask 1101010111110000
          -60 callsubr
          hintmask 1011101011110000
          442 callsubr
        </CharString>
        <CharString name="dvBH_VA">
          586 328 callsubr
          -5 352 callgsubr
          127 16 136 16 -8 17 hstemhm
          95 367 callsubr
          hintmask 1011110101110000
          28 callgsubr
          184 462 callsubr
          hintmask 1101110101110000
          -54 callsubr
          16 -656 -16 477 -283 vlineto
          -19 callsubr
          -99 -86 -53 -90 -33 hvcurveto
          -190 112 hlineto
          hintmask 1101101011110000
          -60 callsubr
          hintmask 1011110101110000
          -62 callgsubr
          hintmask 1101110101110000
          408 -184 -103 callgsubr
          endchar
        </CharString>
        <CharString name="dvBH_YA">
          619 292 callsubr
          -14 16 275 16 279 529 callsubr
          165 -67 callsubr
          hintmask 1101101011110000
          28 callgsubr
          344 callgsubr
          hintmask 1011101011110000
          24 callgsubr
          hintmask 1011010111110000
          -60 callsubr
          hintmask 1101101011110000
          -62 callgsubr
          hintmask 1011101011110000
          425 -171 4 callgsubr
          endchar
        </CharString>
        <CharString name="dvB_BA">
          566 21 -21 451 callsubr
          444 17 vstem
          293 callsubr
          699 -577 190 callgsubr
          -1220 -16 1041 433 callsubr
          -113 -93 -67 -113 -25 hvcurveto
          91 -21 -72 89 -136 -20 callsubr
          122 81 78 98 23 hvcurveto
          -112 25 96 -64 113 hhcurveto
          118 73 68 77 28 hvcurveto
          -265 vlineto
          -679 136 -25 callgsubr
          460 hmoveto
          -6 callgsubr
          -3 441 -96 callsubr
          endchar
        </CharString>
        <CharString name="dvB_BHA">
          603 328 callgsubr
          0 352 callgsubr
          132 508 callgsubr
          -8 17 hstemhm
          85 17 444 10 -10 14 266 17 200 17 hintmask 1011110110110000
          693 5 callgsubr
          hintmask 1101101110110000
          191 callsubr
          vhcurveto
          hintmask 1101110110110000
          374 callsubr
          -683 -16 689 hlineto
          hintmask 1101101101110000
          177 callsubr
          -122 vlineto
          -67 -51 -28 -48 -26 hvcurveto
          103 -6 -71 121 -159 -20 callsubr
          108 76 61 82 32 hvcurveto
          hintmask 1011110101110000
          -76 11 56 -51 83 hhcurveto
          hintmask 1011110110110000
          264 callsubr
          hintmask 1101110110110000
          -519 252 -7 callsubr
          endchar
        </CharString>
        <CharString name="dvB_BH_RA">
          626 328 callgsubr
          20 16 257 16 132 508 callgsubr
          -8 17 hstemhm
          85 17 444 13 270 17 220 17 hintmask 1101110111100000
          324 577 rmoveto
          153 69 -119 -103 -10 -1 -10 -1 -10 hvcurveto
          -1 0 0 -1 vvcurveto
          -6 -40 -17 -42 -29 -34 -323 312 rcurveline
          50 callsubr
          152 callgsubr
          hintmask 1111110111100000
          369 36 91 callsubr
          -39 552 rmoveto
          hintmask 1101101111100000
          177 callsubr
          -122 vlineto
          -68 -54 -28 -46 -26 hvcurveto
          103 -6 -71 119 -158 -20 callsubr
          111 76 64 84 31 hvcurveto
          hintmask 1111110111100000
          -67 13 57 -45 81 hhcurveto
          89 61 65 124 hvcurveto
          101 callsubr
          hintmask 1101101111100000
          191 callsubr
          vhcurveto
          hintmask 1101110111100000
          374 callsubr
          -686 -16 hlineto
          endchar
        </CharString>
        <CharString name="dvB_DA">
          484 328 callgsubr
          -7 16 427 16 -11 262 callgsubr
          468 callgsubr
          hintmask 1101011101000000
          1103 -22 callsubr
          -1138 -16 vlineto
          hintmask 1101011111000000
          950 -136 -104 hlineto
          -121 -108 -53 -116 -28 hvcurveto
          hintmask 1100111101000000
          89 -24 -73 85 -133 -20 callsubr
          120 81 74 96 25 hvcurveto
          hintmask 1011011101000000
          -98 24 78 -63 117 hhcurveto
          90 75 48 63 23 hvcurveto
          -81 callgsubr
          hintmask 1101011111000000
          121 152 hlineto
          -605 44 callsubr
          hintmask 1100111101000000
          -3 441 -96 callsubr
          endchar
        </CharString>
        <CharString name="dvB_DHA">
          546 191 callgsubr
          -12 16 288 16 -8 8 137 508 callgsubr
          -7 9 callsubr
          432 17 -10 15 469 callgsubr
          hintmask 1011011011011000
          112 callgsubr
          -35 -51 -24 -69 hhcurveto
          838 588 rmoveto
          16 -179 -376 vlineto
          hintmask 1101011010111000
          56 callgsubr
          hintmask 1101010111011000
          -91 callgsubr
          vhcurveto
          hintmask 1010111011011000
          72 callgsubr
          hintmask 1011011010111000
          106 75 59 81 33 hvcurveto
          hintmask 1101011010111000
          -95 12 86 -49 109 hhcurveto
          518 callgsubr
          hvcurveto
          -275 -55 callsubr
        </CharString>
        <CharString name="dvB_DH_VA">
          1007 191 callgsubr
          -12 16 -11 16 283 16 -8 8 132 16 -11 508 callgsubr
          -7 9 callsubr
          432 17 -10 15 210 callgsubr
          hintmask 1010101010110111
          112 callgsubr
          -35 -51 -24 -69 hhcurveto
          668 230 rmoveto
          -1 -9 rlineto
          hintmask 1100101010101111
          -159 -18 -88 -66 -135 101 callgsubr
          hintmask 1001101001110111
          -91 callgsubr
          vhcurveto
          hintmask 1010010110110111
          72 callgsubr
          hintmask 1010101010101111
          106 75 59 81 33 hvcurveto
          hintmask 1100101010101111
          -95 12 86 -49 114 hhcurveto
          465 callsubr
          hvcurveto
          hintmask 1001101010110111
          31 callgsubr
          hintmask 1010101010110111
          410 callsubr
          hintmask 1001101010110111
          233 -225 -103 callgsubr
          endchar
        </CharString>
        <CharString name="dvB_JA">
          689 21 383 callsubr
          293 17 257 17 hintmask 1101111111000000
          327 136 -25 callgsubr
          981 588 rmoveto
          16 -1343 -16 1164 203 callsubr
          hintmask 1111111111000000
          143 callgsubr
          hintmask 1101111111000000
          54 callgsubr
          117 81 72 93 27 vhcurveto
          hintmask 1111111111000000
          -76 18 54 -50 81 hhcurveto
          104 63 75 106 hvcurveto
          107 callgsubr
          -822 -147 -96 callsubr
          endchar
        </CharString>
        <CharString name="dvB_JHA">
          685 0 16 104 16 162 126 callsubr
          232 16 15 204 callgsubr
          438 16 -16 526 callsubr
          hintmask 1101101100111100
          327 304 callgsubr
          321 -309 rlineto
          -38 -33 -49 -25 -70 hhcurveto
          798 588 rmoveto
          -410 -416 vlineto
          hintmask 1101101101011100
          35 callsubr
          hlineto
          243 -724 190 callgsubr
          -1339 -16 917 187 callsubr
          hvcurveto
          -54 vlineto
          -54 -14 -63 -37 -47 vhcurveto
          hintmask 1110111110011100
          -320 308 rlineto
          50 callsubr
          33 29 -6 -9 26 hvcurveto
          17 vlineto
          9 -26 -29 5 -33 -20 callsubr
          148 77 114 132 4 hvcurveto
          -47 27 58 -21 67 hhcurveto
          45 hlineto
          121 67 -56 -92 -70 -47 -64 -114 hvcurveto
          hintmask 1101101100111100
          -18 callgsubr
          -64 16 hvcurveto
          284 -1 rlineto
          -299 vlineto
          endchar
        </CharString>
        <CharString name="dvB_J_YA">
          1147 328 callgsubr
          2 16 5 16 286 16 100 262 callgsubr
          16 293 17 220 -67 callsubr
          hintmask 1010111111111000
          293 callsubr
          hintmask 1100111111111000
          152 callgsubr
          hintmask 1010111111111000
          1025 18 20 callgsubr
          -1801 -16 1354 241 callgsubr
          hintmask 1001111111111000
          143 callgsubr
          hintmask 1100111111111000
          54 callgsubr
          117 81 72 93 27 vhcurveto
          hintmask 1001111111111000
          -76 18 54 -50 81 hhcurveto
          104 63 75 106 hvcurveto
          121 221 346 callsubr
          hintmask 1010111111111000
          -184 93 -120 -75 callgsubr
        </CharString>
        <CharString name="dvB_JxA">
          701 11 48 -38 383 callsubr
          125 463 callsubr
          hintmask 0110111110110000
          1308 -22 callsubr
          -1343 -16 1164 203 callsubr
          hintmask 0111111110110000
          143 callgsubr
          hintmask 0110111110110000
          54 callgsubr
          117 81 72 93 27 vhcurveto
          hintmask 0111111110110000
          -76 18 54 -50 81 hhcurveto
          104 63 75 106 hvcurveto
          107 callgsubr
          hintmask 1010111111110000
          121 callsubr
          -409 101 -25 callgsubr
          -3 441 -96 callsubr
          endchar
        </CharString>
        <CharString name="dvB_LA">
          772 104 17 -1 16 408 16 17 262 callgsubr
          -15 callsubr
          hintmask 1001111011100000
          1051 104 rmoveto
          174 callgsubr
          hvcurveto
          hintmask 1011111101100000
          120 -59 95 -115 4 vhcurveto
          164 294 16 -1426 -16 1115 360 callgsubr
          -62 -58 -87 -21 hvcurveto
          hintmask 0101111011100000
          90 -23 -72 88 -136 -20 callsubr
          116 80 70 92 28 hvcurveto
          hintmask 1011111011100000
          -104 19 72 -74 124 hhcurveto
          11 11 1 1 11 hvcurveto
          -87 callgsubr
          hintmask 1001111011100000
          162 callsubr
          hintmask 0101111011100000
          -724 32 -25 callgsubr
          -3 441 -96 callsubr
          endchar
        </CharString>
        <CharString name="dvB_L_YA">
          1301 387 callgsubr
          -1 16 2 562 callgsubr
          109 16 17 262 callgsubr
          210 callsubr
          329 -67 callsubr
          hintmask 1010110111011110
          327 136 -25 callgsubr
          hintmask 1001110111101110
          1179 18 342 callsubr
          19 4 vlineto
          8 callgsubr
          -1955 -16 1508 252 callgsubr
          -99 -62 -58 -87 -21 hvcurveto
          hintmask 1010111111011110
          90 -23 -72 88 -136 -20 callsubr
          116 80 70 92 28 hvcurveto
          hintmask 1101110111011110
          194 callsubr
          151 61 90 117 106 45 -83 -50 vhcurveto
          -11 vlineto
          hintmask 1001111111011110
          506 callsubr
          -70 callgsubr
          -1434 -147 -96 callsubr
          endchar
        </CharString>
        <CharString name="dvB_NA">
          647 328 callgsubr
          24 228 callgsubr
          66 262 callgsubr
          145 callsubr
          -85 -64 -42 -68 -25 hvcurveto
          95 -18 -74 97 -142 -20 callsubr
          118 80 72 93 27 hvcurveto
          hintmask 1110111111100000
          -75 353 callsubr
          hlineto
          hintmask 1100111111100000
          -777 44 callsubr
          -3 441 -96 callsubr
          endchar
        </CharString>
        <CharString name="dvB_R">
          378 callsubr
          -22 callsubr
          -597 -16 vlineto
          597 -369 rmoveto
          106 -72 132 -166 -24 callgsubr
          32 30 5 10 26 vhcurveto
          -206 -181 rlineto
          23 hlineto
          246 217 rlineto
          54 44 30 68 72 vvcurveto
          -238 222 -7 callsubr
          endchar
        </CharString>
        <CharString name="dvB_RA">
          106 21 -21 180 callgsubr
          17 vstem
          490 180 rmoveto
          27 25 18 29 11 30 rrcurveto
          -264 99 callsubr
          -760 -16 581 -280 vlineto
          79 -28 -74 70 -120 -20 callsubr
          35 31 6 11 26 hvcurveto
          537 callgsubr
          90 623 -58 callsubr
          endchar
        </CharString>
        <CharString name="dvB_SA">
          672 389 callsubr
          85 17 444 16 3 callgsubr
          209 17 hintmask 1010111111010000
          324 577 -7 callsubr
          541 475 134 callsubr
          -1326 -16 887 11 callsubr
          -99 hlineto
          92 -21 -73 91 -138 -20 callsubr
          110 77 63 83 32 hvcurveto
          -61 vlineto
          -127 58 -87 120 vhcurveto
          hintmask 1010111111110000
          -72 callgsubr
          hvcurveto
          258 callgsubr
          550 vlineto
          hintmask 0110111111010000
          -394 -55 callsubr
        </CharString>
        <CharString name="dvB_SHA">
          629 -9 16 14 436 callgsubr
          213 16 212 508 callgsubr
          -7 9 callsubr
          444 17 334 160 callsubr
          hintmask 1011110111010000
          914 6 callsubr
          hintmask 1011101110110000
          131 96 71 130 126 -76 73 -114 hvcurveto
          hintmask 1011110110110000
          -22 -21 -3 -6 -20 hvcurveto
          -708 -16 711 hlineto
          hintmask 1011101110110000
          6 18 20 3 22 hhcurveto
          104 69 -68 -115 -119 -88 -66 -122 hvcurveto
          -137 hlineto
          104 -5 -72 124 -161 -20 callsubr
          110 77 63 83 32 hvcurveto
          -61 vlineto
          92 callsubr
          hintmask 1011110111010000
          -72 callgsubr
          hvcurveto
          hintmask 0111110110110000
          -590 389 -7 callsubr
          759 -136 rmoveto
          724 vlineto
          hintmask 1011110110101000
          162 16 hlineto
          hintmask 0111110110110000
          300 callgsubr
        </CharString>
        <CharString name="dvB_TA">
          549 2 16 102 16 351 16 74 204 callgsubr
          435 17 -8 15 428 17 hintmask 1111111010000000
          1168 -22 callsubr
          -1203 -16 1024 349 callgsubr
          hintmask 1111110110000000
          -126 -94 -41 -88 -42 hvcurveto
          102 -8 -73 117 -156 -20 callsubr
          hvcurveto
          hintmask 1111111010000000
          101 73 53 73 36 hvcurveto
          -155 3 96 -89 161 hhcurveto
          -52 callgsubr
          -679 44 callsubr
          -3 441 rmoveto
          hintmask 1111110110000000
          153 69 -119 -103 -48 -17 -56 -37 -44 hvcurveto
          -323 312 rlineto
          hintmask 1111111010000000
          50 callsubr
          endchar
        </CharString>
        <CharString name="dvB_VA">
          558 328 callgsubr
          -11 16 431 16 -11 262 callgsubr
          377 callgsubr
          hintmask 1011011110000000
          779 58 callsubr
          398 599 rmoveto
          -1212 -16 1033 127 callsubr
          -107 -93 -62 -106 -26 hvcurveto
          hintmask 1100111110000000
          88 -24 -72 85 -133 -20 callsubr
          120 82 75 96 25 hvcurveto
          hintmask 1010111110000000
          -106 26 89 -60 110 76 callsubr
          vlineto
          -853 -147 -96 callsubr
          hintmask 1101011110000000
          152 callgsubr
          endchar
        </CharString>
        <CharString name="dvB_YA">
          593 328 callgsubr
          2 16 285 16 122 204 callgsubr
          668 17 251 17 hintmask 1011111110000000
          1217 -22 callsubr
          -1252 -16 805 -89 vlineto
          438 callsubr
          -132 -107 -91 -149 hvcurveto
          hintmask 1101111110000000
          54 callgsubr
          128 84 85 105 19 vhcurveto
          hintmask 1011111110000000
          -107 33 84 -65 127 -36 callsubr
          hintmask 1101111110000000
          -728 44 callsubr
          hintmask 1011111110000000
          476 18 rmoveto
          -140 -89 83 143 -13 hvcurveto
          -2 20 -5 20 -7 19 rrcurveto
          16 hlineto
          128 -95 callsubr
          -479 423 -96 callsubr
          endchar
        </CharString>
        <CharString name="dvC">
          -117 197 callsubr
          410 14 vstem
          406 525 380 callsubr
          130 96 104 114 -4 vhcurveto
          -14 hlineto
          85 callsubr
          211 199 rmoveto
          16 -623 -16 vlineto
          endchar
        </CharString>
        <CharString name="dvCA">
          88 callgsubr
          98 79 59 79 31 vhcurveto
          -253 17 724 vlineto
          endchar
        </CharString>
        <CharString name="dvCH">
          227 33 16 369 16 -7 7 111 132 callgsubr
          296 17 hintmask 1101101011000000
          239 callsubr
          hintmask 1011101111000000
          16 callgsubr
          hintmask 1011111011000000
          178 callgsubr
          208 159 119 204 251 callsubr
          148 callgsubr
          -167 -126 67 135 vhcurveto
          hintmask 1101111111000000
          430 callsubr
          hintmask 1101101011000000
          138 callgsubr
          135 vlineto
          endchar
        </CharString>
        <CharString name="dvCHA">
          227 33 16 369 16 -7 7 111 132 callgsubr
          135 17 144 17 hintmask 1101101011100000
          239 callsubr
          hintmask 1011101111100000
          16 callgsubr
          hintmask 1011111011100000
          -88 -8 -77 -58 -108 166 callsubr
          514 callsubr
          hvcurveto
          hintmask 1101111111100000
          430 callsubr
          hintmask 1101101011100000
          -37 callsubr
          245 callsubr
          hintmask 1011111011100000
          148 callgsubr
          vhcurveto
          endchar
        </CharString>
        <CharString name="dvCH_R">
          227 33 16 -13 13 369 16 -7 7 111 132 callgsubr
          296 17 hintmask 1010110101100000
          239 callsubr
          hintmask 1001110111100000
          16 callgsubr
          hintmask 1001111101100000
          83 callsubr
          hintmask 0110110101100000
          450 callgsubr
          251 callsubr
          vhcurveto
          hintmask 1010111111100000
          148 callgsubr
          -167 -126 67 135 430 callsubr
          hintmask 1010110101100000
          138 callgsubr
          135 vlineto
          endchar
        </CharString>
        <CharString name="dvCH_RA">
          227 33 16 -13 13 369 16 -7 7 111 132 callgsubr
          135 17 144 17 hintmask 1010110101110000
          239 callsubr
          hintmask 1001110111110000
          16 callgsubr
          hintmask 1001111101110000
          83 callsubr
          hintmask 0110110101110000
          450 callgsubr
          138 -79 63 -82 4 vhcurveto
          163 vlineto
          hintmask 1010111111110000
          -206 -675 rmoveto
          59 callgsubr
          hintmask 1010110101110000
          -37 callsubr
          245 callsubr
          hintmask 1010111111110000
          148 callgsubr
          vhcurveto
          endchar
        </CharString>
        <CharString name="dvCH_R_YA">
          798 21 -21 33 16 -13 13 254 callsubr
          hintmask 1101100110101111
          394 49 rmoveto
          hintmask 1101100111111111
          59 callgsubr
          hintmask 1101100110101111
          138 callgsubr
          135 839 -89 vlineto
          hintmask 1101001110101111
          192 callsubr
          hintmask 1101100110101111
          148 callgsubr
          vhcurveto
          609 105 rmoveto
          -140 -86 86 147 -17 hvcurveto
          hintmask 1101001110101111
          362 callgsubr
          hintmask 1101100110101111
          338 callgsubr
          hintmask 1101010110111111
          16 callgsubr
          hintmask 1101010111101111
          83 callsubr
          hintmask 1011100110101111
          -178 172 165 18 124 99 19 160 rlinecurve
          -108 33 84 -67 126 -36 callsubr
          endchar
        </CharString>
        <CharString name="dvCH_YA">
          798 21 -21 33 16 254 callsubr
          hintmask 1111001101011110
          394 49 rmoveto
          hintmask 1111001111111110
          59 callgsubr
          hintmask 1111001101011110
          138 callgsubr
          135 839 -89 vlineto
          hintmask 1110011101011110
          192 callsubr
          hintmask 1111001101011110
          148 callgsubr
          vhcurveto
          609 105 rmoveto
          -140 -86 86 147 -17 hvcurveto
          hintmask 1110011101011110
          362 callgsubr
          hintmask 1111001101011110
          338 callgsubr
          hintmask 1110101101111110
          16 callgsubr
          hintmask 1110101111011110
          178 callgsubr
          193 151 102 178 21 vhcurveto
          -108 33 84 -67 126 -36 callsubr
          endchar
        </CharString>
        <CharString name="dvC_CA">
          561 21 -21 197 callsubr
          412 15 410 17 vstem
          360 131 rmoveto
          -104 -92 276 callgsubr
          340 hlineto
          -81 -26 -52 -65 -9 -84 rrcurveto
          -115 -23 -60 -104 -132 hhcurveto
          820 593 rmoveto
          16 -1215 -16 1036 -391 vlineto
          85 callsubr
          29 16 -784 547 callsubr
          -134 99 -75 115 119 66 80 98 30 vhcurveto
          -115 14 94 -63 109 hhcurveto
          98 79 59 79 31 hvcurveto
          519 callgsubr
          endchar
        </CharString>
        <CharString name="dvC_CHA">
          708 33 16 320 callgsubr
          118 84 98 17 135 17 144 17 hintmask 1101010110101110
          875 49 rmoveto
          hintmask 1101010111111110
          59 callgsubr
          hintmask 1101010110101110
          -37 callsubr
          hintmask 1101001010101110
          245 callsubr
          hintmask 1101010110101110
          148 callgsubr
          vhcurveto
          452 675 rmoveto
          16 -1362 -16 630 -135 vlineto
          hintmask 1100110110111110
          16 callgsubr
          hintmask 1110010111101110
          -78 -7 -70 -47 -14 -87 rrcurveto
          -78 -16 -81 -75 -106 hhcurveto
          -107 -94 88 callsubr
          101 -75 118 90 74 50 69 36 vhcurveto
          290 callsubr
        </CharString>
        <CharString name="dvC_CH_VA">
          708 -323 16 340 16 -12 12 320 callgsubr
          60 17 41 84 98 17 114 16 5 17 144 17 hintmask 110101010110110110100000
          863 -307 rmoveto
          -98 -76 60 108 104 70 64 119 4 hvcurveto
          58 57 10 20 50 hvcurveto
          -198 vlineto
          -75 -53 -97 -127 vhcurveto
          12 356 rmoveto
          hintmask 110101010111111110100000
          59 callgsubr
          hintmask 110101010110110101100000
          -37 callsubr
          hintmask 110101001010110110100000
          245 callsubr
          hintmask 110101010110110110100000
          148 callgsubr
          vhcurveto
          452 675 rmoveto
          16 -1362 -16 630 -135 vlineto
          hintmask 110100110110111110100000
          16 callgsubr
          hintmask 101110010111110110100000
          -78 -7 -70 -47 -14 -87 rrcurveto
          -78 -16 -81 -75 -106 hhcurveto
          -107 -94 88 callsubr
          101 -75 118 90 74 50 69 36 vhcurveto
          8 -113 94 -68 139 -16 rrcurveto
          -75 -18 -60 -62 -96 vvcurveto
          -116 84 -68 107 99 58 53 61 23 vhcurveto
          -181 16 460 vlineto
          111 50 72 99 137 vvcurveto
          hintmask 110101010110110101100000
          138 -79 63 -82 4 vhcurveto
          163 vlineto
          endchar
        </CharString>
        <CharString name="dvC_MA">
          638 21 -21 115 16 5 352 callgsubr
          80 563 callsubr
          hstemhm
          147 17 381 14 270 17 232 17 hintmask 1101111111000000
          1078 430 callgsubr
          hintmask 1011111111000000
          -40 callsubr
          561 572 rmoveto
          16 -1292 -16 864 351 callgsubr
          -91 -65 -53 -84 -8 hvcurveto
          hintmask 1101111111000000
          -95 -15 -63 -82 -114 hhcurveto
          -102 -85 88 callsubr
          92 -75 113 101 65 61 80 27 vhcurveto
          hintmask 1011111111000000
          -72 14 56 -48 81 hhcurveto
          96 callgsubr
        </CharString>
        <CharString name="dvC_NA">
          647 21 -21 118 16 26 228 callgsubr
          14 563 callsubr
          hstemhm
          147 17 382 145 callsubr
          -5 callgsubr
          -102 -70 -98 -121 -101 -90 68 122 hvcurveto
          hintmask 1100011111100000
          264 callgsubr
          vhcurveto
          326 callsubr
          -132 97 -74 112 107 72 69 92 19 vhcurveto
          hintmask 1110111111100000
          -72 21 65 -47 90 13 callgsubr
        </CharString>
        <CharString name="dvC_R">
          -117 197 callsubr
          410 14 vstem
          588 -22 callsubr
          -623 -16 vlineto
          441 -199 380 callsubr
          28 27 5 9 25 vhcurveto
          -199 -175 rlineto
          23 hlineto
          242 213 49 41 29 61 -2 64 rlinecurve
          -14 hlineto
          85 callsubr
          endchar
        </CharString>
        <CharString name="dvC_RA">
          88 callgsubr
          28 27 5 9 25 vhcurveto
          -199 -175 rlineto
          23 hlineto
          242 213 27 23 22 30 13 33 rlinecurve
          519 callgsubr
          endchar
        </CharString>
        <CharString name="dvC_YA">
          631 21 -21 115 16 7 16 285 16 70 563 callsubr
          hstemhm
          147 17 412 -67 callsubr
          hintmask 1011111111000000
          836 1 callgsubr
          414 233 callgsubr
          -1285 -16 838 -89 vlineto
          303 callsubr
          -2 vlineto
          hintmask 1101111111000000
          -213 3 -108 -74 -112 hhcurveto
          -107 -88 88 callsubr
          95 -75 118 105 99 61 157 21 vhcurveto
          hintmask 1011111111000000
          -121 27 87 -74 136 -36 callsubr
          endchar
        </CharString>
        <CharString name="dvCandrabindu">
          -584 824 16 138 48 hstem
          -307 16 131 49 130 16 vstem
          35 969 -42 callsubr
          -146 33 -102 callsubr
        </CharString>
        <CharString name="dvD">
          120 callsubr
          633 219 callgsubr
          28 1002 87 callgsubr
        </CharString>
        <CharString name="dvDA">
          120 callsubr
          642 724 87 callgsubr
        </CharString>
        <CharString name="dvDA_mvR">
          -12 26 16 278 16 -7 7 234 16 138 16 hstemhm
          94 17 -16 477 callgsubr
          76 16 hintmask 1101110110000000
          537 235 rmoveto
          -16 hlineto
          -133 -99 -60 -118 -112 -81 51 96 97 84 34 80 vhcurveto
          71 16 -71 hlineto
          hintmask 1101101110000000
          -97 -67 47 71 87 75 29 84 hvcurveto
          175 154 162 16 -642 -16 464 -138 -159 hlineto
          -94 -81 -35 -97 hvcurveto
          hintmask 1011101110000000
          -83 77 -39 56 -3 vhcurveto
          -2 vlineto
          hintmask 1011110110000000
          -41 -1 -93 -31 -106 vvcurveto
          -105 84 -58 126 vhcurveto
          hintmask 1101110110000000
          132 101 63 146 hvcurveto
          endchar
        </CharString>
        <CharString name="dvDD">
          -2 -9 16 153 callsubr
          hintmask 11110111
          449 -287 -39 callgsubr
          187 1011 250 callsubr
          hintmask 11111011
          -52 callsubr
          hintmask 11110111
          36 callgsubr
          hlineto
          endchar
        </CharString>
        <CharString name="dvDDA">
          -2 -9 16 153 callsubr
          hintmask 11110111
          617 724 250 callsubr
          hintmask 11111011
          -52 callsubr
          hintmask 11110111
          36 callgsubr
          hlineto
          endchar
        </CharString>
        <CharString name="dvDDH">
          44 -234 -21 278 432 callsubr
          hstem
          85 186 callgsubr
          vstem
          479 -255 -39 callgsubr
          203 979 rmoveto
          16 -698 325 callgsubr
          -161 121 -110 161 130 -70 callsubr
          endchar
        </CharString>
        <CharString name="dvDDHA">
          44 23 432 callsubr
          hstem
          85 186 callgsubr
          vstem
          663 -22 callsubr
          -698 325 callgsubr
          -161 121 -110 161 130 -70 callsubr
          endchar
        </CharString>
        <CharString name="dvDDH_DDHA">
          84 -306 16 258 16 152 16 -9 9 258 16 149 16 133 16 hstemhm
          95 186 callgsubr
          hintmask 1110111111100000
          703 -22 callsubr
          -738 -16 487 -133 -95 vlineto
          -147 -115 -72 -156 hvcurveto
          hintmask 1101111111100000
          -121 78 -77 122 -22 vhcurveto
          -114 -21 -86 -70 -131 vvcurveto
          -145 112 -82 165 141 83 64 88 80 -53 58 -101 -88 -59 273 callsubr
          53 39 77 89 48 -52 -70 -78 -78 -58 -129 -155 -105 76 135 vhcurveto
          hintmask 1110111111100000
          147 119 68 139 vhcurveto
          1 0 0 1 hhcurveto
          141 83 64 88 80 -53 58 -101 -88 -59 -44 -74 -7 1 -10 1 -6 hvcurveto
          345 callgsubr
          64 53 39 77 89 48 -52 -70 -78 -78 -58 -129 483 callsubr
          112 149 hlineto
          endchar
        </CharString>
        <CharString name="dvDDH_R">
          44 22 17 -16 16 -14 14 456 callgsubr
          hstemhm
          85 186 callgsubr
          hintmask 0101111111000000
          484 -325 -39 callgsubr
          198 1049 22 callgsubr
        </CharString>
        <CharString name="dvDDH_RA">
          44 22 17 -16 16 -14 14 456 callgsubr
          hstemhm
          85 186 callgsubr
          hintmask 0101111111000000
          663 724 22 callgsubr
        </CharString>
        <CharString name="dvDDH_VA">
          42 -239 -21 67 16 313 8 -8 16 258 16 149 16 133 16 hstemhm
          95 17 17 17 149 17 130 17 9 16 75 17 hintmask 1101111101011000
          661 -22 callsubr
          -696 -16 vlineto
          hintmask 1110111101111000
          477 -133 -85 hlineto
          -147 -115 -72 -156 -121 82 -80 119 -18 hvcurveto
          hintmask 1110111111011000
          -89 -6 -78 -56 -109 vvcurveto
          -105 78 -61 95 90 54 51 60 22 vhcurveto
          -178 16 417 vlineto
          60 26 32 49 60 vvcurveto
          78 -52 56 -86 -86 -57 273 callsubr
          51 39 75 74 47 -50 -68 vhcurveto
          hintmask 1101111101111000
          -80 -69 -60 -118 483 callsubr
          102 149 hlineto
          hintmask 1101111111011000
          -157 -901 rmoveto
          -86 -70 53 97 107 72 56 154 37 32 5 10 27 hvcurveto
          -156 vlineto
          -77 -47 -95 -119 vhcurveto
          endchar
        </CharString>
        <CharString name="dvDDH_YA">
          637 21 -21 23 16 48 16 235 16 1 312 callsubr
          hstemhm
          85 186 callgsubr
          88 348 callgsubr
          hintmask 1010111111111100
          1094 63 callgsubr
          -1291 325 callgsubr
          hvcurveto
          hintmask 0110111111111100
          -161 322 callsubr
          vhcurveto
          17 hlineto
          -1 6 -1 9 7 vvcurveto
          76 60 47 67 82 58 -61 -83 -99 -84 -73 -118 -151 -114 104 152 179 122 83 159 vhcurveto
          310 hlineto
          72 98 -7 -101 hvcurveto
          hintmask 1011011111111100
          -75 -67 -25 -108 5 vhcurveto
          -12 hlineto
          -1 -12 -1 -12 -12 vvcurveto
          -131 60 -100 150 103 64 56 83 26 vhcurveto
          -226 vlineto
          -193 103 rmoveto
          -127 -67 80 129 8 0 9 1 9 hvcurveto
          111 -5 78 28 88 vvcurveto
          108 -97 16 -84 vhcurveto
          -240 151 618 -389 hlineto
          -132 -62 -100 -131 vhcurveto
          endchar
        </CharString>
        <CharString name="dvDDHxA">
          44 -125 48 100 432 callsubr
          hstemhm
          85 17 183 17 12 49 79 17 110 17 hintmask 0111111011000000
          663 -22 callsubr
          -698 325 callgsubr
          -161 121 -110 161 130 -70 callsubr
          hintmask 1111111111000000
          -96 -825 -102 callsubr
        </CharString>
        <CharString name="dvDD_DDA">
          16 -325 16 229 16 189 16 428 callgsubr
          107 17 0 17 294 17 50 17 hintmask 1111110111000000
          635 -22 callsubr
          -670 -16 470 -133 -144 vlineto
          257 callgsubr
          hintmask 1111111011000000
          411 callgsubr
          -79 64 -59 82 -15 vhcurveto
          hintmask 1111110111000000
          -73 -7 -56 -32 -71 vvcurveto
          -90 86 -15 103 109 80 -19 -97 -70 -51 -43 -110 vhcurveto
          hintmask 1111111011000000
          411 callgsubr
          -103 96 -60 138 120 58 50 79 105 -84 27 -120 vhcurveto
          hintmask 1111110111000000
          -93 -81 9 80 73 64 27 136 120 58 50 79 107 -90 25 -116 297 callgsubr
        </CharString>
        <CharString name="dvDD_DDHA">
          29 -304 16 258 16 139 16 -8 8 428 callgsubr
          74 17 12 17 0 17 117 17 160 17 50 17 3 17 hintmask 1110111100111000
          612 -22 callsubr
          -632 -16 451 -133 -144 vlineto
          hintmask 1110111101111000
          257 callgsubr
          hintmask 1110111110111000
          411 callgsubr
          hintmask 1101111110111000
          -86 74 -61 92 -8 vhcurveto
          hintmask 1110111100110100
          -111 -19 -84 -70 -131 vvcurveto
          -139 104 -78 153 128 76 64 88 80 -49 58 -94 -83 -55 273 callsubr
          49 39 72 82 44 -52 -70 -78 -70 -58 -117 -143 -97 72 129 145 113 67 133 vhcurveto
          hintmask 1110111101111000
          120 58 50 79 107 -90 25 -116 297 callgsubr
        </CharString>
        <CharString name="dvDD_R">
          -2 -10 400 callsubr
          153 callsubr
          hintmask 0101110111000000
          436 -357 -39 callgsubr
          200 1081 25 callgsubr
        </CharString>
        <CharString name="dvDD_RA">
          -2 -10 400 callsubr
          153 callsubr
          hintmask 0101110111000000
          617 724 25 callgsubr
        </CharString>
        <CharString name="dvDD_VA">
          29 -239 -21 70 16 299 16 -8 8 428 callgsubr
          103 17 -7 17 -10 17 294 17 3 16 31 17 hintmask 1110111010011000
          288 -174 rmoveto
          -89 -69 53 94 102 76 50 131 48 38 8 14 28 hvcurveto
          -170 vlineto
          -65 -48 -86 -115 vhcurveto
          360 898 rmoveto
          16 -683 -16 vlineto
          hintmask 1110111001101000
          466 -133 -144 hlineto
          257 callgsubr
          hintmask 1110111100011000
          411 callgsubr
          hintmask 1101111100011000
          -85 73 -61 91 -9 vhcurveto
          hintmask 1101111010011000
          -81 -9 -73 -53 -98 vvcurveto
          -102 77 -61 98 78 60 34 62 25 vhcurveto
          -166 16 417 vlineto
          32 22 16 34 41 vvcurveto
          107 -90 25 -116 vhcurveto
          hintmask 1110111001101000
          297 callgsubr
        </CharString>
</ttFont>
